<?xml version="1.0" encoding="UTF-8" standalone="no"?>
<!DOCTYPE svg PUBLIC "-//W3C//DTD SVG 1.1//EN"
 "http://www.w3.org/Graphics/SVG/1.1/DTD/svg11.dtd">
<!-- Generated by graphviz version 10.0.1 (20240210.2158)
 -->
<!-- Title: snakemake_dag Pages: 1 -->
<svg width="233pt" height="188pt"
 viewBox="0.00 0.00 232.50 188.00" xmlns="http://www.w3.org/2000/svg" xmlns:xlink="http://www.w3.org/1999/xlink">
<g id="graph0" class="graph" transform="scale(1 1) rotate(0) translate(4 184)">
<title>snakemake_dag</title>
<polygon fill="white" stroke="none" points="-4,4 -4,-184 228.5,-184 228.5,4 -4,4"/>
<!-- 0 -->
<g id="node1" class="node">
<title>0</title>
<path fill="none" stroke="#56d8d8" stroke-width="2" d="M123.25,-36C123.25,-36 93.25,-36 93.25,-36 87.25,-36 81.25,-30 81.25,-24 81.25,-24 81.25,-12 81.25,-12 81.25,-6 87.25,0 93.25,0 93.25,0 123.25,0 123.25,0 129.25,0 135.25,-6 135.25,-12 135.25,-12 135.25,-24 135.25,-24 135.25,-30 129.25,-36 123.25,-36"/>
<text text-anchor="middle" x="108.25" y="-14.12" font-family="sans" font-size="10.00">all</text>
</g>
<!-- 1 -->
<g id="node2" class="node">
<title>1</title>
<path fill="none" stroke="#d85656" stroke-width="2" d="M46.25,-108C46.25,-108 16.25,-108 16.25,-108 10.25,-108 4.25,-102 4.25,-96 4.25,-96 4.25,-84 4.25,-84 4.25,-78 10.25,-72 16.25,-72 16.25,-72 46.25,-72 46.25,-72 52.25,-72 58.25,-78 58.25,-84 58.25,-84 58.25,-96 58.25,-96 58.25,-102 52.25,-108 46.25,-108"/>
<text text-anchor="middle" x="31.25" y="-86.12" font-family="sans" font-size="10.00">run_cojo</text>
</g>
<!-- 1&#45;&gt;0 -->
<g id="edge1" class="edge">
<title>1&#45;&gt;0</title>
<path fill="none" stroke="grey" stroke-width="2" d="M50.68,-71.34C59.28,-63.52 69.57,-54.16 79.06,-45.53"/>
<polygon fill="grey" stroke="grey" stroke-width="2" points="81.27,-48.25 86.32,-38.94 76.56,-43.07 81.27,-48.25"/>
</g>
<!-- 2 -->
<g id="node3" class="node">
<title>2</title>
<path fill="none" stroke="#d6d856" stroke-width="2" d="M86.5,-180C86.5,-180 12,-180 12,-180 6,-180 0,-174 0,-168 0,-168 0,-156 0,-156 0,-150 6,-144 12,-144 12,-144 86.5,-144 86.5,-144 92.5,-144 98.5,-150 98.5,-156 98.5,-156 98.5,-168 98.5,-168 98.5,-174 92.5,-180 86.5,-180"/>
<text text-anchor="middle" x="49.25" y="-163.75" font-family="sans" font-size="10.00">break_locus</text>
<text text-anchor="middle" x="49.25" y="-152.5" font-family="sans" font-size="10.00">seqid: seq.00001.1</text>
</g>
<!-- 2&#45;&gt;1 -->
<g id="edge4" class="edge">
<title>2&#45;&gt;1</title>
<path fill="none" stroke="grey" stroke-width="2" d="M44.71,-143.34C42.99,-136.67 40.99,-128.89 39.06,-121.39"/>
<polygon fill="grey" stroke="grey" stroke-width="2" points="42.49,-120.65 36.61,-111.83 35.71,-122.39 42.49,-120.65"/>
</g>
<!-- 5 -->
<g id="node6" class="node">
<title>5</title>
<path fill="none" stroke="#59d856" stroke-width="2" d="M128.62,-108C128.62,-108 87.88,-108 87.88,-108 81.88,-108 75.88,-102 75.88,-96 75.88,-96 75.88,-84 75.88,-84 75.88,-78 81.88,-72 87.88,-72 87.88,-72 128.62,-72 128.62,-72 134.62,-72 140.62,-78 140.62,-84 140.62,-84 140.62,-96 140.62,-96 140.62,-102 134.62,-108 128.62,-108"/>
<text text-anchor="middle" x="108.25" y="-86.12" font-family="sans" font-size="10.00">collect_loci</text>
</g>
<!-- 2&#45;&gt;5 -->
<g id="edge6" class="edge">
<title>2&#45;&gt;5</title>
<path fill="none" stroke="grey" stroke-width="2" d="M64.14,-143.34C70.45,-135.85 77.95,-126.95 84.96,-118.63"/>
<polygon fill="grey" stroke="grey" stroke-width="2" points="87.44,-121.12 91.21,-111.22 82.09,-116.61 87.44,-121.12"/>
</g>
<!-- 3 -->
<g id="node4" class="node">
<title>3</title>
<path fill="none" stroke="#d85656" stroke-width="2" d="M200.25,-108C200.25,-108 170.25,-108 170.25,-108 164.25,-108 158.25,-102 158.25,-96 158.25,-96 158.25,-84 158.25,-84 158.25,-78 164.25,-72 170.25,-72 170.25,-72 200.25,-72 200.25,-72 206.25,-72 212.25,-78 212.25,-84 212.25,-84 212.25,-96 212.25,-96 212.25,-102 206.25,-108 200.25,-108"/>
<text text-anchor="middle" x="185.25" y="-86.12" font-family="sans" font-size="10.00">run_cojo</text>
</g>
<!-- 3&#45;&gt;0 -->
<g id="edge2" class="edge">
<title>3&#45;&gt;0</title>
<path fill="none" stroke="grey" stroke-width="2" d="M165.82,-71.34C157.22,-63.52 146.93,-54.16 137.44,-45.53"/>
<polygon fill="grey" stroke="grey" stroke-width="2" points="139.94,-43.07 130.18,-38.94 135.23,-48.25 139.94,-43.07"/>
</g>
<!-- 4 -->
<g id="node5" class="node">
<title>4</title>
<path fill="none" stroke="#d6d856" stroke-width="2" d="M212.5,-180C212.5,-180 138,-180 138,-180 132,-180 126,-174 126,-168 126,-168 126,-156 126,-156 126,-150 132,-144 138,-144 138,-144 212.5,-144 212.5,-144 218.5,-144 224.5,-150 224.5,-156 224.5,-156 224.5,-168 224.5,-168 224.5,-174 218.5,-180 212.5,-180"/>
<text text-anchor="middle" x="175.25" y="-163.75" font-family="sans" font-size="10.00">break_locus</text>
<text text-anchor="middle" x="175.25" y="-152.5" font-family="sans" font-size="10.00">seqid: seq.00001.2</text>
</g>
<!-- 4&#45;&gt;3 -->
<g id="edge5" class="edge">
<title>4&#45;&gt;3</title>
<path fill="none" stroke="grey" stroke-width="2" d="M177.77,-143.34C178.71,-136.75 179.81,-129.08 180.87,-121.67"/>
<polygon fill="grey" stroke="grey" stroke-width="2" points="184.32,-122.29 182.26,-111.9 177.39,-121.3 184.32,-122.29"/>
</g>
<!-- 4&#45;&gt;5 -->
<g id="edge7" class="edge">
<title>4&#45;&gt;5</title>
<path fill="none" stroke="grey" stroke-width="2" d="M158.34,-143.34C151.02,-135.69 142.28,-126.56 134.17,-118.08"/>
<polygon fill="grey" stroke="grey" stroke-width="2" points="136.92,-115.89 127.48,-111.09 131.86,-120.73 136.92,-115.89"/>
</g>
<!-- 5&#45;&gt;0 -->
<g id="edge3" class="edge">
<title>5&#45;&gt;0</title>
<path fill="none" stroke="grey" stroke-width="2" d="M108.25,-71.34C108.25,-64.75 108.25,-57.08 108.25,-49.67"/>
<polygon fill="grey" stroke="grey" stroke-width="2" points="111.75,-49.93 108.25,-39.93 104.75,-49.93 111.75,-49.93"/>
</g>
</g>
</svg>
