<?xml version="1.0" encoding="UTF-8" standalone="no"?>
<!DOCTYPE svg PUBLIC "-//W3C//DTD SVG 1.1//EN"
 "http://www.w3.org/Graphics/SVG/1.1/DTD/svg11.dtd">
<!-- Generated by graphviz version 2.40.1 (0)
 -->
<!-- Title: snakemake_dag Pages: 1 -->
<svg width="287pt" height="260pt"
 viewBox="0.00 0.00 287.00 260.00" xmlns="http://www.w3.org/2000/svg" xmlns:xlink="http://www.w3.org/1999/xlink">
<g id="graph0" class="graph" transform="scale(1 1) rotate(0) translate(4 256)">
<title>snakemake_dag</title>
<polygon fill="#ffffff" stroke="transparent" points="-4,4 -4,-256 283,-256 283,4 -4,4"/>
<!-- 0 -->
<g id="node1" class="node">
<title>0</title>
<path fill="none" stroke="#56d88a" stroke-width="2" d="M135,-36C135,-36 105,-36 105,-36 99,-36 93,-30 93,-24 93,-24 93,-12 93,-12 93,-6 99,0 105,0 105,0 135,0 135,0 141,0 147,-6 147,-12 147,-12 147,-24 147,-24 147,-30 141,-36 135,-36"/>
<text text-anchor="middle" x="120" y="-15.5" font-family="sans" font-size="10.00" fill="#000000">all</text>
</g>
<!-- 1 -->
<g id="node2" class="node">
<title>1</title>
<path fill="none" stroke="#56c1d8" stroke-width="2" d="M74,-180C74,-180 40,-180 40,-180 34,-180 28,-174 28,-168 28,-168 28,-156 28,-156 28,-150 34,-144 40,-144 40,-144 74,-144 74,-144 80,-144 86,-150 86,-156 86,-156 86,-168 86,-168 86,-174 80,-180 74,-180"/>
<text text-anchor="middle" x="57" y="-159.5" font-family="sans" font-size="10.00" fill="#000000">run_cojo</text>
</g>
<!-- 1&#45;&gt;0 -->
<g id="edge1" class="edge">
<title>1&#45;&gt;0</title>
<path fill="none" stroke="#c0c0c0" stroke-width="2" d="M62.0231,-143.9929C67.4469,-125.519 76.8278,-96.1475 88,-72 92.1669,-62.9937 97.4184,-53.562 102.4556,-45.1472"/>
<polygon fill="#c0c0c0" stroke="#c0c0c0" stroke-width="2" points="105.5254,-46.8365 107.7759,-36.4835 99.5603,-43.1734 105.5254,-46.8365"/>
</g>
<!-- 6 -->
<g id="node7" class="node">
<title>6</title>
<path fill="none" stroke="#d85656" stroke-width="2" d="M211.5,-108C211.5,-108 116.5,-108 116.5,-108 110.5,-108 104.5,-102 104.5,-96 104.5,-96 104.5,-84 104.5,-84 104.5,-78 110.5,-72 116.5,-72 116.5,-72 211.5,-72 211.5,-72 217.5,-72 223.5,-78 223.5,-84 223.5,-84 223.5,-96 223.5,-96 223.5,-102 217.5,-108 211.5,-108"/>
<text text-anchor="middle" x="164" y="-87.5" font-family="sans" font-size="10.00" fill="#000000">collect_credible_sets</text>
</g>
<!-- 1&#45;&gt;6 -->
<g id="edge11" class="edge">
<title>1&#45;&gt;6</title>
<path fill="none" stroke="#c0c0c0" stroke-width="2" d="M84.0006,-143.8314C97.4331,-134.7927 113.8473,-123.7476 128.3039,-114.0198"/>
<polygon fill="#c0c0c0" stroke="#c0c0c0" stroke-width="2" points="130.6654,-116.6494 137.008,-108.1628 126.7575,-110.8418 130.6654,-116.6494"/>
</g>
<!-- 2 -->
<g id="node3" class="node">
<title>2</title>
<path fill="none" stroke="#d8bc56" stroke-width="2" stroke-dasharray="5,2" d="M102,-252C102,-252 12,-252 12,-252 6,-252 0,-246 0,-240 0,-240 0,-228 0,-228 0,-222 6,-216 12,-216 12,-216 102,-216 102,-216 108,-216 114,-222 114,-228 114,-228 114,-240 114,-240 114,-246 108,-252 102,-252"/>
<text text-anchor="middle" x="57" y="-237" font-family="sans" font-size="10.00" fill="#000000">break_locus</text>
<text text-anchor="middle" x="57" y="-226" font-family="sans" font-size="10.00" fill="#000000">seqid: seq.13435.31</text>
</g>
<!-- 2&#45;&gt;0 -->
<g id="edge3" class="edge">
<title>2&#45;&gt;0</title>
<path fill="none" stroke="#c0c0c0" stroke-width="2" d="M39.7365,-215.5761C31.7611,-205.7997 23.152,-193.1148 19,-180 14.1708,-164.7462 14.0773,-159.2239 19,-144 32.2107,-103.1448 65.7646,-66.076 90.5919,-42.8859"/>
<polygon fill="#c0c0c0" stroke="#c0c0c0" stroke-width="2" points="92.953,-45.4696 97.9846,-36.1458 88.2368,-40.2968 92.953,-45.4696"/>
</g>
<!-- 2&#45;&gt;1 -->
<g id="edge7" class="edge">
<title>2&#45;&gt;1</title>
<path fill="none" stroke="#c0c0c0" stroke-width="2" d="M57,-215.8314C57,-208.131 57,-198.9743 57,-190.4166"/>
<polygon fill="#c0c0c0" stroke="#c0c0c0" stroke-width="2" points="60.5001,-190.4132 57,-180.4133 53.5001,-190.4133 60.5001,-190.4132"/>
</g>
<!-- 5 -->
<g id="node6" class="node">
<title>5</title>
<path fill="none" stroke="#88d856" stroke-width="2" d="M163.5,-180C163.5,-180 116.5,-180 116.5,-180 110.5,-180 104.5,-174 104.5,-168 104.5,-168 104.5,-156 104.5,-156 104.5,-150 110.5,-144 116.5,-144 116.5,-144 163.5,-144 163.5,-144 169.5,-144 175.5,-150 175.5,-156 175.5,-156 175.5,-168 175.5,-168 175.5,-174 169.5,-180 163.5,-180"/>
<text text-anchor="middle" x="140" y="-159.5" font-family="sans" font-size="10.00" fill="#000000">collect_loci</text>
</g>
<!-- 2&#45;&gt;5 -->
<g id="edge9" class="edge">
<title>2&#45;&gt;5</title>
<path fill="none" stroke="#c0c0c0" stroke-width="2" d="M77.9444,-215.8314C88.0691,-207.0485 100.3777,-196.3712 111.3548,-186.8489"/>
<polygon fill="#c0c0c0" stroke="#c0c0c0" stroke-width="2" points="113.8019,-189.3595 119.0623,-180.1628 109.2149,-184.0718 113.8019,-189.3595"/>
</g>
<!-- 3 -->
<g id="node4" class="node">
<title>3</title>
<path fill="none" stroke="#56c1d8" stroke-width="2" d="M245,-180C245,-180 211,-180 211,-180 205,-180 199,-174 199,-168 199,-168 199,-156 199,-156 199,-150 205,-144 211,-144 211,-144 245,-144 245,-144 251,-144 257,-150 257,-156 257,-156 257,-168 257,-168 257,-174 251,-180 245,-180"/>
<text text-anchor="middle" x="228" y="-159.5" font-family="sans" font-size="10.00" fill="#000000">run_cojo</text>
</g>
<!-- 3&#45;&gt;0 -->
<g id="edge2" class="edge">
<title>3&#45;&gt;0</title>
<path fill="none" stroke="#c0c0c0" stroke-width="2" d="M234.7762,-143.8955C240.7855,-124.5403 246.687,-93.7102 233,-72 216.4676,-45.7764 183.3006,-32.013 157.1555,-24.9647"/>
<polygon fill="#c0c0c0" stroke="#c0c0c0" stroke-width="2" points="157.7177,-21.4984 147.1703,-22.4993 156.0398,-28.2944 157.7177,-21.4984"/>
</g>
<!-- 3&#45;&gt;6 -->
<g id="edge12" class="edge">
<title>3&#45;&gt;6</title>
<path fill="none" stroke="#c0c0c0" stroke-width="2" d="M211.8501,-143.8314C204.3283,-135.3694 195.2435,-125.1489 187.0196,-115.8971"/>
<polygon fill="#c0c0c0" stroke="#c0c0c0" stroke-width="2" points="189.627,-113.5621 180.3673,-108.4133 184.3951,-118.2127 189.627,-113.5621"/>
</g>
<!-- 4 -->
<g id="node5" class="node">
<title>4</title>
<path fill="none" stroke="#d8bc56" stroke-width="2" stroke-dasharray="5,2" d="M267,-252C267,-252 189,-252 189,-252 183,-252 177,-246 177,-240 177,-240 177,-228 177,-228 177,-222 183,-216 189,-216 189,-216 267,-216 267,-216 273,-216 279,-222 279,-228 279,-228 279,-240 279,-240 279,-246 273,-252 267,-252"/>
<text text-anchor="middle" x="228" y="-237" font-family="sans" font-size="10.00" fill="#000000">break_locus</text>
<text text-anchor="middle" x="228" y="-226" font-family="sans" font-size="10.00" fill="#000000">seqid: seq.3054.3</text>
</g>
<!-- 4&#45;&gt;0 -->
<g id="edge4" class="edge">
<title>4&#45;&gt;0</title>
<path fill="none" stroke="#c0c0c0" stroke-width="2" d="M245.2635,-215.5761C253.2389,-205.7997 261.848,-193.1148 266,-180 280.6265,-133.7993 281.9442,-109.2948 251,-72 227.6049,-43.8035 187.0905,-30.138 157.2956,-23.6394"/>
<polygon fill="#c0c0c0" stroke="#c0c0c0" stroke-width="2" points="157.7421,-20.1594 147.2495,-21.6276 156.3675,-27.0231 157.7421,-20.1594"/>
</g>
<!-- 4&#45;&gt;3 -->
<g id="edge8" class="edge">
<title>4&#45;&gt;3</title>
<path fill="none" stroke="#c0c0c0" stroke-width="2" d="M228,-215.8314C228,-208.131 228,-198.9743 228,-190.4166"/>
<polygon fill="#c0c0c0" stroke="#c0c0c0" stroke-width="2" points="231.5001,-190.4132 228,-180.4133 224.5001,-190.4133 231.5001,-190.4132"/>
</g>
<!-- 4&#45;&gt;5 -->
<g id="edge10" class="edge">
<title>4&#45;&gt;5</title>
<path fill="none" stroke="#c0c0c0" stroke-width="2" d="M205.7939,-215.8314C194.955,-206.9632 181.7556,-196.1637 170.0322,-186.5718"/>
<polygon fill="#c0c0c0" stroke="#c0c0c0" stroke-width="2" points="172.155,-183.7864 162.199,-180.1628 167.7223,-189.2041 172.155,-183.7864"/>
</g>
<!-- 5&#45;&gt;0 -->
<g id="edge5" class="edge">
<title>5&#45;&gt;0</title>
<path fill="none" stroke="#c0c0c0" stroke-width="2" d="M119.5974,-143.5625C110.5059,-133.9675 100.7838,-121.4441 96,-108 88.6815,-87.4324 95.756,-63.5289 104.0785,-45.5276"/>
<polygon fill="#c0c0c0" stroke="#c0c0c0" stroke-width="2" points="107.4043,-46.7022 108.747,-36.1928 101.1436,-43.571 107.4043,-46.7022"/>
</g>
<!-- 6&#45;&gt;0 -->
<g id="edge6" class="edge">
<title>6&#45;&gt;0</title>
<path fill="none" stroke="#c0c0c0" stroke-width="2" d="M152.8969,-71.8314C147.9326,-63.7079 141.9778,-53.9637 136.5072,-45.0118"/>
<polygon fill="#c0c0c0" stroke="#c0c0c0" stroke-width="2" points="139.4536,-43.121 131.2526,-36.4133 133.4806,-46.7712 139.4536,-43.121"/>
</g>
</g>
</svg>
