<?xml version="1.0" encoding="UTF-8" standalone="no"?>
<!DOCTYPE svg PUBLIC "-//W3C//DTD SVG 1.1//EN"
 "http://www.w3.org/Graphics/SVG/1.1/DTD/svg11.dtd">
<!-- Generated by graphviz version 2.40.1 (0)
 -->
<!-- Title: snakemake_dag Pages: 1 -->
<svg width="2524pt" height="404pt"
 viewBox="0.00 0.00 2523.99 404.00" xmlns="http://www.w3.org/2000/svg" xmlns:xlink="http://www.w3.org/1999/xlink">
<g id="graph0" class="graph" transform="scale(1 1) rotate(0) translate(4 400)">
<title>snakemake_dag</title>
<polygon fill="#ffffff" stroke="transparent" points="-4,4 -4,-400 2519.9905,-400 2519.9905,4 -4,4"/>
<!-- 0 -->
<g id="node1" class="node">
<title>0</title>
<path fill="none" stroke="#d6d856" stroke-width="2" d="M1170.9905,-36C1170.9905,-36 1140.9905,-36 1140.9905,-36 1134.9905,-36 1128.9905,-30 1128.9905,-24 1128.9905,-24 1128.9905,-12 1128.9905,-12 1128.9905,-6 1134.9905,0 1140.9905,0 1140.9905,0 1170.9905,0 1170.9905,0 1176.9905,0 1182.9905,-6 1182.9905,-12 1182.9905,-12 1182.9905,-24 1182.9905,-24 1182.9905,-30 1176.9905,-36 1170.9905,-36"/>
<text text-anchor="middle" x="1155.9905" y="-15.5" font-family="sans" font-size="10.00" fill="#000000">all</text>
</g>
<!-- 1 -->
<g id="node2" class="node">
<title>1</title>
<path fill="none" stroke="#97d856" stroke-width="2" d="M907.4905,-324C907.4905,-324 860.4905,-324 860.4905,-324 854.4905,-324 848.4905,-318 848.4905,-312 848.4905,-312 848.4905,-300 848.4905,-300 848.4905,-294 854.4905,-288 860.4905,-288 860.4905,-288 907.4905,-288 907.4905,-288 913.4905,-288 919.4905,-294 919.4905,-300 919.4905,-300 919.4905,-312 919.4905,-312 919.4905,-318 913.4905,-324 907.4905,-324"/>
<text text-anchor="middle" x="883.9905" y="-303.5" font-family="sans" font-size="10.00" fill="#000000">collect_loci</text>
</g>
<!-- 1&#45;&gt;0 -->
<g id="edge1" class="edge">
<title>1&#45;&gt;0</title>
<path fill="none" stroke="#c0c0c0" stroke-width="2" d="M848.4019,-290.8258C845.2517,-289.7696 842.0846,-288.8061 838.9905,-288 658.7865,-241.0498 130.8898,-319.9054 7.9905,-180 -8.524,-161.2004 5.1364,-85.2018 19.9905,-72 61.9723,-34.688 927.0291,-21.0404 1118.6309,-18.4695"/>
<polygon fill="#c0c0c0" stroke="#c0c0c0" stroke-width="2" points="1118.8128,-21.9674 1128.7657,-18.3354 1118.7202,-14.9681 1118.8128,-21.9674"/>
</g>
<!-- 10 -->
<g id="node11" class="node">
<title>10</title>
<path fill="none" stroke="#56d89a" stroke-width="2" d="M1033.4905,-252C1033.4905,-252 938.4905,-252 938.4905,-252 932.4905,-252 926.4905,-246 926.4905,-240 926.4905,-240 926.4905,-228 926.4905,-228 926.4905,-222 932.4905,-216 938.4905,-216 938.4905,-216 1033.4905,-216 1033.4905,-216 1039.4905,-216 1045.4905,-222 1045.4905,-228 1045.4905,-228 1045.4905,-240 1045.4905,-240 1045.4905,-246 1039.4905,-252 1033.4905,-252"/>
<text text-anchor="middle" x="985.9905" y="-231.5" font-family="sans" font-size="10.00" fill="#000000">collect_credible_sets</text>
</g>
<!-- 1&#45;&gt;10 -->
<g id="edge41" class="edge">
<title>1&#45;&gt;10</title>
<path fill="none" stroke="#c0c0c0" stroke-width="2" d="M909.7294,-287.8314C922.5342,-278.7927 938.1814,-267.7476 951.9624,-258.0198"/>
<polygon fill="#c0c0c0" stroke="#c0c0c0" stroke-width="2" points="954.1085,-260.7891 960.2598,-252.1628 950.0717,-255.0703 954.1085,-260.7891"/>
</g>
<!-- 2 -->
<g id="node3" class="node">
<title>2</title>
<path fill="none" stroke="#56d8d8" stroke-width="2" stroke-dasharray="5,2" d="M1260.9905,-396C1260.9905,-396 1176.9905,-396 1176.9905,-396 1170.9905,-396 1164.9905,-390 1164.9905,-384 1164.9905,-384 1164.9905,-372 1164.9905,-372 1164.9905,-366 1170.9905,-360 1176.9905,-360 1176.9905,-360 1260.9905,-360 1260.9905,-360 1266.9905,-360 1272.9905,-366 1272.9905,-372 1272.9905,-372 1272.9905,-384 1272.9905,-384 1272.9905,-390 1266.9905,-396 1260.9905,-396"/>
<text text-anchor="middle" x="1218.9905" y="-381" font-family="sans" font-size="10.00" fill="#000000">break_locus</text>
<text text-anchor="middle" x="1218.9905" y="-370" font-family="sans" font-size="10.00" fill="#000000">seqid: seq.10428.1</text>
</g>
<!-- 2&#45;&gt;1 -->
<g id="edge25" class="edge">
<title>2&#45;&gt;1</title>
<path fill="none" stroke="#c0c0c0" stroke-width="2" d="M1164.8007,-362.0668C1161.8291,-361.334 1158.8782,-360.639 1155.9905,-360 1059.3706,-338.618 1029.3378,-350.3465 929.4896,-323.7735"/>
<polygon fill="#c0c0c0" stroke="#c0c0c0" stroke-width="2" points="930.1727,-320.3321 919.6043,-321.08 928.3324,-327.0859 930.1727,-320.3321"/>
</g>
<!-- 11 -->
<g id="node12" class="node">
<title>11</title>
<path fill="none" stroke="#d89556" stroke-width="2" stroke-dasharray="5,2" d="M1211.9905,-324C1211.9905,-324 1177.9905,-324 1177.9905,-324 1171.9905,-324 1165.9905,-318 1165.9905,-312 1165.9905,-312 1165.9905,-300 1165.9905,-300 1165.9905,-294 1171.9905,-288 1177.9905,-288 1177.9905,-288 1211.9905,-288 1211.9905,-288 1217.9905,-288 1223.9905,-294 1223.9905,-300 1223.9905,-300 1223.9905,-312 1223.9905,-312 1223.9905,-318 1217.9905,-324 1211.9905,-324"/>
<text text-anchor="middle" x="1194.9905" y="-303.5" font-family="sans" font-size="10.00" fill="#000000">run_cojo</text>
</g>
<!-- 2&#45;&gt;11 -->
<g id="edge42" class="edge">
<title>2&#45;&gt;11</title>
<path fill="none" stroke="#c0c0c0" stroke-width="2" d="M1212.9343,-359.8314C1210.3393,-352.0463 1207.2481,-342.7729 1204.3687,-334.1347"/>
<polygon fill="#c0c0c0" stroke="#c0c0c0" stroke-width="2" points="1207.611,-332.7933 1201.1282,-324.4133 1200.9702,-335.0069 1207.611,-332.7933"/>
</g>
<!-- 3 -->
<g id="node4" class="node">
<title>3</title>
<path fill="none" stroke="#56d8d8" stroke-width="2" stroke-dasharray="5,2" d="M1392.9905,-396C1392.9905,-396 1302.9905,-396 1302.9905,-396 1296.9905,-396 1290.9905,-390 1290.9905,-384 1290.9905,-384 1290.9905,-372 1290.9905,-372 1290.9905,-366 1296.9905,-360 1302.9905,-360 1302.9905,-360 1392.9905,-360 1392.9905,-360 1398.9905,-360 1404.9905,-366 1404.9905,-372 1404.9905,-372 1404.9905,-384 1404.9905,-384 1404.9905,-390 1398.9905,-396 1392.9905,-396"/>
<text text-anchor="middle" x="1347.9905" y="-381" font-family="sans" font-size="10.00" fill="#000000">break_locus</text>
<text text-anchor="middle" x="1347.9905" y="-370" font-family="sans" font-size="10.00" fill="#000000">seqid: seq.13435.31</text>
</g>
<!-- 3&#45;&gt;1 -->
<g id="edge26" class="edge">
<title>3&#45;&gt;1</title>
<path fill="none" stroke="#c0c0c0" stroke-width="2" d="M1290.8863,-361.808C1287.888,-361.1518 1284.9096,-360.5431 1281.9905,-360 1130.1278,-331.7467 1084.0174,-360.4243 929.4112,-323.6634"/>
<polygon fill="#c0c0c0" stroke="#c0c0c0" stroke-width="2" points="930.0993,-320.2288 919.5555,-321.2673 928.4455,-327.0307 930.0993,-320.2288"/>
</g>
<!-- 12 -->
<g id="node13" class="node">
<title>12</title>
<path fill="none" stroke="#d89556" stroke-width="2" stroke-dasharray="5,2" d="M1287.9905,-324C1287.9905,-324 1253.9905,-324 1253.9905,-324 1247.9905,-324 1241.9905,-318 1241.9905,-312 1241.9905,-312 1241.9905,-300 1241.9905,-300 1241.9905,-294 1247.9905,-288 1253.9905,-288 1253.9905,-288 1287.9905,-288 1287.9905,-288 1293.9905,-288 1299.9905,-294 1299.9905,-300 1299.9905,-300 1299.9905,-312 1299.9905,-312 1299.9905,-318 1293.9905,-324 1287.9905,-324"/>
<text text-anchor="middle" x="1270.9905" y="-303.5" font-family="sans" font-size="10.00" fill="#000000">run_cojo</text>
</g>
<!-- 3&#45;&gt;12 -->
<g id="edge43" class="edge">
<title>3&#45;&gt;12</title>
<path fill="none" stroke="#c0c0c0" stroke-width="2" d="M1328.5601,-359.8314C1319.2585,-351.1337 1307.9701,-340.5783 1297.8619,-331.1265"/>
<polygon fill="#c0c0c0" stroke="#c0c0c0" stroke-width="2" points="1300.1094,-328.4363 1290.4146,-324.1628 1295.3284,-333.5493 1300.1094,-328.4363"/>
</g>
<!-- 4 -->
<g id="node5" class="node">
<title>4</title>
<path fill="none" stroke="#56d8d8" stroke-width="2" stroke-dasharray="5,2" d="M1518.9905,-396C1518.9905,-396 1434.9905,-396 1434.9905,-396 1428.9905,-396 1422.9905,-390 1422.9905,-384 1422.9905,-384 1422.9905,-372 1422.9905,-372 1422.9905,-366 1428.9905,-360 1434.9905,-360 1434.9905,-360 1518.9905,-360 1518.9905,-360 1524.9905,-360 1530.9905,-366 1530.9905,-372 1530.9905,-372 1530.9905,-384 1530.9905,-384 1530.9905,-390 1524.9905,-396 1518.9905,-396"/>
<text text-anchor="middle" x="1476.9905" y="-381" font-family="sans" font-size="10.00" fill="#000000">break_locus</text>
<text text-anchor="middle" x="1476.9905" y="-370" font-family="sans" font-size="10.00" fill="#000000">seqid: seq.23336.2</text>
</g>
<!-- 4&#45;&gt;1 -->
<g id="edge27" class="edge">
<title>4&#45;&gt;1</title>
<path fill="none" stroke="#c0c0c0" stroke-width="2" d="M1422.859,-361.7747C1419.8724,-361.1172 1416.9022,-360.5184 1413.9905,-360 1204.4095,-322.6859 1141.4792,-371.1969 929.4177,-323.6227"/>
<polygon fill="#c0c0c0" stroke="#c0c0c0" stroke-width="2" points="930.0621,-320.1798 919.5332,-321.3604 928.5003,-327.0033 930.0621,-320.1798"/>
</g>
<!-- 13 -->
<g id="node14" class="node">
<title>13</title>
<path fill="none" stroke="#d89556" stroke-width="2" stroke-dasharray="5,2" d="M1363.9905,-324C1363.9905,-324 1329.9905,-324 1329.9905,-324 1323.9905,-324 1317.9905,-318 1317.9905,-312 1317.9905,-312 1317.9905,-300 1317.9905,-300 1317.9905,-294 1323.9905,-288 1329.9905,-288 1329.9905,-288 1363.9905,-288 1363.9905,-288 1369.9905,-288 1375.9905,-294 1375.9905,-300 1375.9905,-300 1375.9905,-312 1375.9905,-312 1375.9905,-318 1369.9905,-324 1363.9905,-324"/>
<text text-anchor="middle" x="1346.9905" y="-303.5" font-family="sans" font-size="10.00" fill="#000000">run_cojo</text>
</g>
<!-- 4&#45;&gt;13 -->
<g id="edge44" class="edge">
<title>4&#45;&gt;13</title>
<path fill="none" stroke="#c0c0c0" stroke-width="2" d="M1444.186,-359.8314C1426.216,-349.8788 1403.8539,-337.4936 1385.1111,-327.1129"/>
<polygon fill="#c0c0c0" stroke="#c0c0c0" stroke-width="2" points="1386.6796,-323.9807 1376.2359,-322.1975 1383.2881,-330.1043 1386.6796,-323.9807"/>
</g>
<!-- 5 -->
<g id="node6" class="node">
<title>5</title>
<path fill="none" stroke="#56d8d8" stroke-width="2" stroke-dasharray="5,2" d="M642.9905,-396C642.9905,-396 564.9905,-396 564.9905,-396 558.9905,-396 552.9905,-390 552.9905,-384 552.9905,-384 552.9905,-372 552.9905,-372 552.9905,-366 558.9905,-360 564.9905,-360 564.9905,-360 642.9905,-360 642.9905,-360 648.9905,-360 654.9905,-366 654.9905,-372 654.9905,-372 654.9905,-384 654.9905,-384 654.9905,-390 648.9905,-396 642.9905,-396"/>
<text text-anchor="middle" x="603.9905" y="-381" font-family="sans" font-size="10.00" fill="#000000">break_locus</text>
<text text-anchor="middle" x="603.9905" y="-370" font-family="sans" font-size="10.00" fill="#000000">seqid: seq.3054.3</text>
</g>
<!-- 5&#45;&gt;1 -->
<g id="edge28" class="edge">
<title>5&#45;&gt;1</title>
<path fill="none" stroke="#c0c0c0" stroke-width="2" d="M655.2944,-362.283C658.2294,-361.4855 661.1434,-360.7184 663.9905,-360 737.9761,-341.3312 761.1392,-346.3853 838.609,-323.8198"/>
<polygon fill="#c0c0c0" stroke="#c0c0c0" stroke-width="2" points="839.7457,-327.1333 848.3328,-320.9276 837.7499,-320.4238 839.7457,-327.1333"/>
</g>
<!-- 14 -->
<g id="node15" class="node">
<title>14</title>
<path fill="none" stroke="#d89556" stroke-width="2" stroke-dasharray="5,2" d="M741.9905,-324C741.9905,-324 707.9905,-324 707.9905,-324 701.9905,-324 695.9905,-318 695.9905,-312 695.9905,-312 695.9905,-300 695.9905,-300 695.9905,-294 701.9905,-288 707.9905,-288 707.9905,-288 741.9905,-288 741.9905,-288 747.9905,-288 753.9905,-294 753.9905,-300 753.9905,-300 753.9905,-312 753.9905,-312 753.9905,-318 747.9905,-324 741.9905,-324"/>
<text text-anchor="middle" x="724.9905" y="-303.5" font-family="sans" font-size="10.00" fill="#000000">run_cojo</text>
</g>
<!-- 5&#45;&gt;14 -->
<g id="edge45" class="edge">
<title>5&#45;&gt;14</title>
<path fill="none" stroke="#c0c0c0" stroke-width="2" d="M634.5239,-359.8314C650.355,-350.4112 669.8484,-338.8118 686.6813,-328.7955"/>
<polygon fill="#c0c0c0" stroke="#c0c0c0" stroke-width="2" points="688.9151,-331.5391 695.719,-323.4177 685.3356,-325.5236 688.9151,-331.5391"/>
</g>
<!-- 6 -->
<g id="node7" class="node">
<title>6</title>
<path fill="none" stroke="#56d8d8" stroke-width="2" stroke-dasharray="5,2" d="M768.9905,-396C768.9905,-396 684.9905,-396 684.9905,-396 678.9905,-396 672.9905,-390 672.9905,-384 672.9905,-384 672.9905,-372 672.9905,-372 672.9905,-366 678.9905,-360 684.9905,-360 684.9905,-360 768.9905,-360 768.9905,-360 774.9905,-360 780.9905,-366 780.9905,-372 780.9905,-372 780.9905,-384 780.9905,-384 780.9905,-390 774.9905,-396 768.9905,-396"/>
<text text-anchor="middle" x="726.9905" y="-381" font-family="sans" font-size="10.00" fill="#000000">break_locus</text>
<text text-anchor="middle" x="726.9905" y="-370" font-family="sans" font-size="10.00" fill="#000000">seqid: seq.4407.10</text>
</g>
<!-- 6&#45;&gt;1 -->
<g id="edge29" class="edge">
<title>6&#45;&gt;1</title>
<path fill="none" stroke="#c0c0c0" stroke-width="2" d="M766.6082,-359.8314C788.7238,-349.6892 816.3477,-337.0209 839.2412,-326.522"/>
<polygon fill="#c0c0c0" stroke="#c0c0c0" stroke-width="2" points="840.7769,-329.6682 848.4077,-322.3182 837.8589,-323.3054 840.7769,-329.6682"/>
</g>
<!-- 15 -->
<g id="node16" class="node">
<title>15</title>
<path fill="none" stroke="#d89556" stroke-width="2" stroke-dasharray="5,2" d="M817.9905,-324C817.9905,-324 783.9905,-324 783.9905,-324 777.9905,-324 771.9905,-318 771.9905,-312 771.9905,-312 771.9905,-300 771.9905,-300 771.9905,-294 777.9905,-288 783.9905,-288 783.9905,-288 817.9905,-288 817.9905,-288 823.9905,-288 829.9905,-294 829.9905,-300 829.9905,-300 829.9905,-312 829.9905,-312 829.9905,-318 823.9905,-324 817.9905,-324"/>
<text text-anchor="middle" x="800.9905" y="-303.5" font-family="sans" font-size="10.00" fill="#000000">run_cojo</text>
</g>
<!-- 6&#45;&gt;15 -->
<g id="edge46" class="edge">
<title>6&#45;&gt;15</title>
<path fill="none" stroke="#c0c0c0" stroke-width="2" d="M745.6638,-359.8314C754.5154,-351.219 765.2391,-340.7851 774.88,-331.4048"/>
<polygon fill="#c0c0c0" stroke="#c0c0c0" stroke-width="2" points="777.5966,-333.645 782.3231,-324.1628 772.7151,-328.6279 777.5966,-333.645"/>
</g>
<!-- 7 -->
<g id="node8" class="node">
<title>7</title>
<path fill="none" stroke="#56d8d8" stroke-width="2" stroke-dasharray="5,2" d="M888.9905,-396C888.9905,-396 810.9905,-396 810.9905,-396 804.9905,-396 798.9905,-390 798.9905,-384 798.9905,-384 798.9905,-372 798.9905,-372 798.9905,-366 804.9905,-360 810.9905,-360 810.9905,-360 888.9905,-360 888.9905,-360 894.9905,-360 900.9905,-366 900.9905,-372 900.9905,-372 900.9905,-384 900.9905,-384 900.9905,-390 894.9905,-396 888.9905,-396"/>
<text text-anchor="middle" x="849.9905" y="-381" font-family="sans" font-size="10.00" fill="#000000">break_locus</text>
<text text-anchor="middle" x="849.9905" y="-370" font-family="sans" font-size="10.00" fill="#000000">seqid: seq.6556.5</text>
</g>
<!-- 7&#45;&gt;1 -->
<g id="edge30" class="edge">
<title>7&#45;&gt;1</title>
<path fill="none" stroke="#c0c0c0" stroke-width="2" d="M858.5701,-359.8314C862.3263,-351.8771 866.8162,-342.369 870.9702,-333.5723"/>
<polygon fill="#c0c0c0" stroke="#c0c0c0" stroke-width="2" points="874.1901,-334.9503 875.2953,-324.4133 867.8603,-331.9612 874.1901,-334.9503"/>
</g>
<!-- 16 -->
<g id="node17" class="node">
<title>16</title>
<path fill="none" stroke="#d89556" stroke-width="2" stroke-dasharray="5,2" d="M983.9905,-324C983.9905,-324 949.9905,-324 949.9905,-324 943.9905,-324 937.9905,-318 937.9905,-312 937.9905,-312 937.9905,-300 937.9905,-300 937.9905,-294 943.9905,-288 949.9905,-288 949.9905,-288 983.9905,-288 983.9905,-288 989.9905,-288 995.9905,-294 995.9905,-300 995.9905,-300 995.9905,-312 995.9905,-312 995.9905,-318 989.9905,-324 983.9905,-324"/>
<text text-anchor="middle" x="966.9905" y="-303.5" font-family="sans" font-size="10.00" fill="#000000">run_cojo</text>
</g>
<!-- 7&#45;&gt;16 -->
<g id="edge47" class="edge">
<title>7&#45;&gt;16</title>
<path fill="none" stroke="#c0c0c0" stroke-width="2" d="M879.5145,-359.8314C894.5938,-350.5518 913.1094,-339.1576 929.2172,-329.2451"/>
<polygon fill="#c0c0c0" stroke="#c0c0c0" stroke-width="2" points="931.1989,-332.1352 937.8812,-323.9134 927.5302,-326.1736 931.1989,-332.1352"/>
</g>
<!-- 8 -->
<g id="node9" class="node">
<title>8</title>
<path fill="none" stroke="#56d8d8" stroke-width="2" stroke-dasharray="5,2" d="M1014.9905,-396C1014.9905,-396 930.9905,-396 930.9905,-396 924.9905,-396 918.9905,-390 918.9905,-384 918.9905,-384 918.9905,-372 918.9905,-372 918.9905,-366 924.9905,-360 930.9905,-360 930.9905,-360 1014.9905,-360 1014.9905,-360 1020.9905,-360 1026.9905,-366 1026.9905,-372 1026.9905,-372 1026.9905,-384 1026.9905,-384 1026.9905,-390 1020.9905,-396 1014.9905,-396"/>
<text text-anchor="middle" x="972.9905" y="-381" font-family="sans" font-size="10.00" fill="#000000">break_locus</text>
<text text-anchor="middle" x="972.9905" y="-370" font-family="sans" font-size="10.00" fill="#000000">seqid: seq.9313.27</text>
</g>
<!-- 8&#45;&gt;1 -->
<g id="edge31" class="edge">
<title>8&#45;&gt;1</title>
<path fill="none" stroke="#c0c0c0" stroke-width="2" d="M950.532,-359.8314C939.57,-350.9632 926.2206,-340.1637 914.364,-330.5718"/>
<polygon fill="#c0c0c0" stroke="#c0c0c0" stroke-width="2" points="916.4176,-327.7313 906.4418,-324.1628 912.0149,-333.1734 916.4176,-327.7313"/>
</g>
<!-- 17 -->
<g id="node18" class="node">
<title>17</title>
<path fill="none" stroke="#d89556" stroke-width="2" stroke-dasharray="5,2" d="M1059.9905,-324C1059.9905,-324 1025.9905,-324 1025.9905,-324 1019.9905,-324 1013.9905,-318 1013.9905,-312 1013.9905,-312 1013.9905,-300 1013.9905,-300 1013.9905,-294 1019.9905,-288 1025.9905,-288 1025.9905,-288 1059.9905,-288 1059.9905,-288 1065.9905,-288 1071.9905,-294 1071.9905,-300 1071.9905,-300 1071.9905,-312 1071.9905,-312 1071.9905,-318 1065.9905,-324 1059.9905,-324"/>
<text text-anchor="middle" x="1042.9905" y="-303.5" font-family="sans" font-size="10.00" fill="#000000">run_cojo</text>
</g>
<!-- 8&#45;&gt;17 -->
<g id="edge48" class="edge">
<title>8&#45;&gt;17</title>
<path fill="none" stroke="#c0c0c0" stroke-width="2" d="M990.6544,-359.8314C998.9636,-351.2848 1009.0168,-340.9443 1018.0823,-331.6198"/>
<polygon fill="#c0c0c0" stroke="#c0c0c0" stroke-width="2" points="1020.6274,-334.023 1025.0887,-324.4133 1015.6084,-329.1435 1020.6274,-334.023"/>
</g>
<!-- 9 -->
<g id="node10" class="node">
<title>9</title>
<path fill="none" stroke="#56d8d8" stroke-width="2" stroke-dasharray="5,2" d="M1134.9905,-396C1134.9905,-396 1056.9905,-396 1056.9905,-396 1050.9905,-396 1044.9905,-390 1044.9905,-384 1044.9905,-384 1044.9905,-372 1044.9905,-372 1044.9905,-366 1050.9905,-360 1056.9905,-360 1056.9905,-360 1134.9905,-360 1134.9905,-360 1140.9905,-360 1146.9905,-366 1146.9905,-372 1146.9905,-372 1146.9905,-384 1146.9905,-384 1146.9905,-390 1140.9905,-396 1134.9905,-396"/>
<text text-anchor="middle" x="1095.9905" y="-381" font-family="sans" font-size="10.00" fill="#000000">break_locus</text>
<text text-anchor="middle" x="1095.9905" y="-370" font-family="sans" font-size="10.00" fill="#000000">seqid: seq.9971.5</text>
</g>
<!-- 9&#45;&gt;1 -->
<g id="edge32" class="edge">
<title>9&#45;&gt;1</title>
<path fill="none" stroke="#c0c0c0" stroke-width="2" d="M1044.8934,-362.4636C1013.8829,-352.8088 973.3508,-339.7919 929.2343,-323.9809"/>
<polygon fill="#c0c0c0" stroke="#c0c0c0" stroke-width="2" points="930.3624,-320.6671 919.768,-320.5648 927.9862,-327.2515 930.3624,-320.6671"/>
</g>
<!-- 18 -->
<g id="node19" class="node">
<title>18</title>
<path fill="none" stroke="#d89556" stroke-width="2" stroke-dasharray="5,2" d="M1135.9905,-324C1135.9905,-324 1101.9905,-324 1101.9905,-324 1095.9905,-324 1089.9905,-318 1089.9905,-312 1089.9905,-312 1089.9905,-300 1089.9905,-300 1089.9905,-294 1095.9905,-288 1101.9905,-288 1101.9905,-288 1135.9905,-288 1135.9905,-288 1141.9905,-288 1147.9905,-294 1147.9905,-300 1147.9905,-300 1147.9905,-312 1147.9905,-312 1147.9905,-318 1141.9905,-324 1135.9905,-324"/>
<text text-anchor="middle" x="1118.9905" y="-303.5" font-family="sans" font-size="10.00" fill="#000000">run_cojo</text>
</g>
<!-- 9&#45;&gt;18 -->
<g id="edge49" class="edge">
<title>9&#45;&gt;18</title>
<path fill="none" stroke="#c0c0c0" stroke-width="2" d="M1101.7944,-359.8314C1104.2812,-352.0463 1107.2436,-342.7729 1110.003,-334.1347"/>
<polygon fill="#c0c0c0" stroke="#c0c0c0" stroke-width="2" points="1113.3995,-335.0041 1113.1085,-324.4133 1106.7314,-332.874 1113.3995,-335.0041"/>
</g>
<!-- 10&#45;&gt;0 -->
<g id="edge2" class="edge">
<title>10&#45;&gt;0</title>
<path fill="none" stroke="#c0c0c0" stroke-width="2" d="M926.139,-232.9059C719.7017,-228.8444 48.3231,-213.1273 16.9905,-180 5.996,-168.3758 13.669,-159.6514 16.9905,-144 24.26,-109.7447 20.1017,-91.7917 48.9905,-72 94.0501,-41.1296 930.2704,-22.5352 1118.5538,-18.7293"/>
<polygon fill="#c0c0c0" stroke="#c0c0c0" stroke-width="2" points="1118.8482,-22.2242 1128.776,-18.5244 1118.7078,-15.2256 1118.8482,-22.2242"/>
</g>
<!-- 11&#45;&gt;10 -->
<g id="edge33" class="edge">
<title>11&#45;&gt;10</title>
<path fill="none" stroke="#c0c0c0" stroke-width="2" d="M1165.7062,-291.6435C1162.7847,-290.3578 1159.8444,-289.1205 1156.9905,-288 1124.1734,-275.1154 1086.9286,-263.0632 1055.595,-253.6283"/>
<polygon fill="#c0c0c0" stroke="#c0c0c0" stroke-width="2" points="1056.2259,-250.1641 1045.6426,-250.6592 1054.2247,-256.872 1056.2259,-250.1641"/>
</g>
<!-- 21 -->
<g id="node22" class="node">
<title>21</title>
<path fill="none" stroke="#59d856" stroke-width="2" d="M1180.4905,-252C1180.4905,-252 1133.4905,-252 1133.4905,-252 1127.4905,-252 1121.4905,-246 1121.4905,-240 1121.4905,-240 1121.4905,-228 1121.4905,-228 1121.4905,-222 1127.4905,-216 1133.4905,-216 1133.4905,-216 1180.4905,-216 1180.4905,-216 1186.4905,-216 1192.4905,-222 1192.4905,-228 1192.4905,-228 1192.4905,-240 1192.4905,-240 1192.4905,-246 1186.4905,-252 1180.4905,-252"/>
<text text-anchor="middle" x="1156.9905" y="-231.5" font-family="sans" font-size="10.00" fill="#000000">master_file</text>
</g>
<!-- 11&#45;&gt;21 -->
<g id="edge52" class="edge">
<title>11&#45;&gt;21</title>
<path fill="none" stroke="#c0c0c0" stroke-width="2" d="M1185.4015,-287.8314C1181.1587,-279.7925 1176.0784,-270.1666 1171.3945,-261.2918"/>
<polygon fill="#c0c0c0" stroke="#c0c0c0" stroke-width="2" points="1174.4716,-259.6235 1166.7086,-252.4133 1168.2809,-262.8908 1174.4716,-259.6235"/>
</g>
<!-- 12&#45;&gt;10 -->
<g id="edge34" class="edge">
<title>12&#45;&gt;10</title>
<path fill="none" stroke="#c0c0c0" stroke-width="2" d="M1241.8064,-291.37C1238.8646,-290.1397 1235.8922,-288.99 1232.9905,-288 1174.5948,-268.0759 1105.8583,-253.7512 1055.743,-244.8837"/>
<polygon fill="#c0c0c0" stroke="#c0c0c0" stroke-width="2" points="1056.1118,-241.3954 1045.6597,-243.1287 1054.9114,-248.2917 1056.1118,-241.3954"/>
</g>
<!-- 12&#45;&gt;21 -->
<g id="edge53" class="edge">
<title>12&#45;&gt;21</title>
<path fill="none" stroke="#c0c0c0" stroke-width="2" d="M1242.2235,-287.8314C1227.7772,-278.7074 1210.0939,-267.539 1194.5865,-257.7449"/>
<polygon fill="#c0c0c0" stroke="#c0c0c0" stroke-width="2" points="1196.0722,-254.5436 1185.7483,-252.1628 1192.3342,-260.462 1196.0722,-254.5436"/>
</g>
<!-- 13&#45;&gt;10 -->
<g id="edge35" class="edge">
<title>13&#45;&gt;10</title>
<path fill="none" stroke="#c0c0c0" stroke-width="2" d="M1317.856,-291.2186C1314.9042,-290.0189 1311.9159,-288.9178 1308.9905,-288 1285.2806,-280.5613 1143.3134,-258.0981 1055.6677,-244.6008"/>
<polygon fill="#c0c0c0" stroke="#c0c0c0" stroke-width="2" points="1055.9389,-241.1014 1045.5231,-243.0412 1054.8752,-248.0201 1055.9389,-241.1014"/>
</g>
<!-- 13&#45;&gt;21 -->
<g id="edge54" class="edge">
<title>13&#45;&gt;21</title>
<path fill="none" stroke="#c0c0c0" stroke-width="2" d="M1317.6636,-291.7492C1314.7507,-290.4422 1311.824,-289.1709 1308.9905,-288 1273.6086,-273.3789 1232.6705,-258.9746 1202.1997,-248.7249"/>
<polygon fill="#c0c0c0" stroke="#c0c0c0" stroke-width="2" points="1203.2885,-245.3985 1192.6947,-245.5481 1201.0695,-252.0375 1203.2885,-245.3985"/>
</g>
<!-- 14&#45;&gt;10 -->
<g id="edge36" class="edge">
<title>14&#45;&gt;10</title>
<path fill="none" stroke="#c0c0c0" stroke-width="2" d="M754.1981,-291.4378C757.1351,-290.1938 760.1,-289.0224 762.9905,-288 813.2661,-270.217 871.9437,-256.2655 916.4864,-247.0014"/>
<polygon fill="#c0c0c0" stroke="#c0c0c0" stroke-width="2" points="917.2477,-250.4182 926.3405,-244.9802 915.8411,-243.5609 917.2477,-250.4182"/>
</g>
<!-- 14&#45;&gt;21 -->
<g id="edge55" class="edge">
<title>14&#45;&gt;21</title>
<path fill="none" stroke="#c0c0c0" stroke-width="2" d="M754.085,-291.0863C757.0449,-289.9135 760.0461,-288.8547 762.9905,-288 888.5669,-251.5469 925.6726,-271.3687 1054.9905,-252 1073.4243,-249.2391 1093.653,-245.7629 1111.2009,-242.6033"/>
<polygon fill="#c0c0c0" stroke="#c0c0c0" stroke-width="2" points="1111.9766,-246.0198 1121.1892,-240.7874 1110.7244,-239.1326 1111.9766,-246.0198"/>
</g>
<!-- 15&#45;&gt;10 -->
<g id="edge37" class="edge">
<title>15&#45;&gt;10</title>
<path fill="none" stroke="#c0c0c0" stroke-width="2" d="M830.3306,-291.7809C833.2408,-290.4674 836.1632,-289.1861 838.9905,-288 866.4556,-276.4782 897.3327,-264.929 923.6726,-255.4857"/>
<polygon fill="#c0c0c0" stroke="#c0c0c0" stroke-width="2" points="924.9119,-258.7597 933.1567,-252.1058 922.5621,-252.1659 924.9119,-258.7597"/>
</g>
<!-- 15&#45;&gt;21 -->
<g id="edge56" class="edge">
<title>15&#45;&gt;21</title>
<path fill="none" stroke="#c0c0c0" stroke-width="2" d="M830.1245,-291.217C833.0764,-290.0177 836.0649,-288.9171 838.9905,-288 931.859,-258.8892 959.0678,-268.4569 1054.9905,-252 1073.3615,-248.8482 1093.5783,-245.2977 1111.1342,-242.188"/>
<polygon fill="#c0c0c0" stroke="#c0c0c0" stroke-width="2" points="1111.8946,-245.6079 1121.1293,-240.4144 1110.6716,-238.7155 1111.8946,-245.6079"/>
</g>
<!-- 16&#45;&gt;10 -->
<g id="edge38" class="edge">
<title>16&#45;&gt;10</title>
<path fill="none" stroke="#c0c0c0" stroke-width="2" d="M971.785,-287.8314C973.8394,-280.0463 976.2865,-270.7729 978.566,-262.1347"/>
<polygon fill="#c0c0c0" stroke="#c0c0c0" stroke-width="2" points="981.964,-262.9753 981.1314,-252.4133 975.1957,-261.1892 981.964,-262.9753"/>
</g>
<!-- 16&#45;&gt;21 -->
<g id="edge57" class="edge">
<title>16&#45;&gt;21</title>
<path fill="none" stroke="#c0c0c0" stroke-width="2" d="M996.3174,-291.7492C999.2303,-290.4422 1002.1569,-289.1709 1004.9905,-288 1040.3724,-273.3789 1081.3105,-258.9746 1111.7812,-248.7249"/>
<polygon fill="#c0c0c0" stroke="#c0c0c0" stroke-width="2" points="1112.9114,-252.0375 1121.2862,-245.5481 1110.6924,-245.3985 1112.9114,-252.0375"/>
</g>
<!-- 17&#45;&gt;10 -->
<g id="edge39" class="edge">
<title>17&#45;&gt;10</title>
<path fill="none" stroke="#c0c0c0" stroke-width="2" d="M1028.607,-287.8314C1022.0419,-279.5386 1014.1398,-269.557 1006.9327,-260.4533"/>
<polygon fill="#c0c0c0" stroke="#c0c0c0" stroke-width="2" points="1009.5189,-258.0813 1000.5677,-252.4133 1004.0305,-262.4262 1009.5189,-258.0813"/>
</g>
<!-- 17&#45;&gt;21 -->
<g id="edge58" class="edge">
<title>17&#45;&gt;21</title>
<path fill="none" stroke="#c0c0c0" stroke-width="2" d="M1071.7575,-287.8314C1086.2038,-278.7074 1103.887,-267.539 1119.3945,-257.7449"/>
<polygon fill="#c0c0c0" stroke="#c0c0c0" stroke-width="2" points="1121.6468,-260.462 1128.2327,-252.1628 1117.9088,-254.5436 1121.6468,-260.462"/>
</g>
<!-- 18&#45;&gt;10 -->
<g id="edge40" class="edge">
<title>18&#45;&gt;10</title>
<path fill="none" stroke="#c0c0c0" stroke-width="2" d="M1089.8031,-290.1993C1071.7666,-280.4352 1048.3157,-267.7399 1028.2671,-256.8866"/>
<polygon fill="#c0c0c0" stroke="#c0c0c0" stroke-width="2" points="1029.7871,-253.7295 1019.3267,-252.0467 1026.4546,-259.8854 1029.7871,-253.7295"/>
</g>
<!-- 18&#45;&gt;21 -->
<g id="edge59" class="edge">
<title>18&#45;&gt;21</title>
<path fill="none" stroke="#c0c0c0" stroke-width="2" d="M1128.5795,-287.8314C1132.8222,-279.7925 1137.9026,-270.1666 1142.5865,-261.2918"/>
<polygon fill="#c0c0c0" stroke="#c0c0c0" stroke-width="2" points="1145.7001,-262.8908 1147.2724,-252.4133 1139.5094,-259.6235 1145.7001,-262.8908"/>
</g>
<!-- 19 -->
<g id="node20" class="node">
<title>19</title>
<path fill="none" stroke="#569ad8" stroke-width="2" d="M1892.4905,-108C1892.4905,-108 1853.4905,-108 1853.4905,-108 1847.4905,-108 1841.4905,-102 1841.4905,-96 1841.4905,-96 1841.4905,-84 1841.4905,-84 1841.4905,-78 1847.4905,-72 1853.4905,-72 1853.4905,-72 1892.4905,-72 1892.4905,-72 1898.4905,-72 1904.4905,-78 1904.4905,-84 1904.4905,-84 1904.4905,-96 1904.4905,-96 1904.4905,-102 1898.4905,-108 1892.4905,-108"/>
<text text-anchor="middle" x="1872.9905" y="-87.5" font-family="sans" font-size="10.00" fill="#000000">run_coloc</text>
</g>
<!-- 19&#45;&gt;0 -->
<g id="edge3" class="edge">
<title>19&#45;&gt;0</title>
<path fill="none" stroke="#c0c0c0" stroke-width="2" d="M1841.2358,-81.011C1828.5065,-77.7126 1813.6441,-74.2413 1799.9905,-72 1571.3877,-34.4737 1292.6078,-22.3528 1193.3025,-19.0676"/>
<polygon fill="#c0c0c0" stroke="#c0c0c0" stroke-width="2" points="1193.2802,-15.5652 1183.1732,-18.7429 1193.0559,-22.5616 1193.2802,-15.5652"/>
</g>
<!-- 20 -->
<g id="node21" class="node">
<title>20</title>
<path fill="none" stroke="#d85656" stroke-width="2" d="M1933.9905,-180C1933.9905,-180 1861.9905,-180 1861.9905,-180 1855.9905,-180 1849.9905,-174 1849.9905,-168 1849.9905,-168 1849.9905,-156 1849.9905,-156 1849.9905,-150 1855.9905,-144 1861.9905,-144 1861.9905,-144 1933.9905,-144 1933.9905,-144 1939.9905,-144 1945.9905,-150 1945.9905,-156 1945.9905,-156 1945.9905,-168 1945.9905,-168 1945.9905,-174 1939.9905,-180 1933.9905,-180"/>
<text text-anchor="middle" x="1897.9905" y="-165" font-family="sans" font-size="10.00" fill="#000000">merry_go_round</text>
<text text-anchor="middle" x="1897.9905" y="-154" font-family="sans" font-size="10.00" fill="#000000">chr_cs: 1</text>
</g>
<!-- 20&#45;&gt;19 -->
<g id="edge50" class="edge">
<title>20&#45;&gt;19</title>
<path fill="none" stroke="#c0c0c0" stroke-width="2" d="M1891.6819,-143.8314C1888.9788,-136.0463 1885.7589,-126.7729 1882.7595,-118.1347"/>
<polygon fill="#c0c0c0" stroke="#c0c0c0" stroke-width="2" points="1885.9705,-116.7119 1879.384,-108.4133 1879.3578,-119.0081 1885.9705,-116.7119"/>
</g>
<!-- 21&#45;&gt;20 -->
<g id="edge51" class="edge">
<title>21&#45;&gt;20</title>
<path fill="none" stroke="#c0c0c0" stroke-width="2" d="M1192.6208,-232.258C1311.7213,-226.2717 1696.1101,-205.5921 1840.0461,-179.8635"/>
<polygon fill="#c0c0c0" stroke="#c0c0c0" stroke-width="2" points="1840.8019,-183.2829 1849.987,-178.0024 1839.5137,-176.4024 1840.8019,-183.2829"/>
</g>
<!-- 23 -->
<g id="node24" class="node">
<title>23</title>
<path fill="none" stroke="#d85656" stroke-width="2" d="M2047.9905,-180C2047.9905,-180 1975.9905,-180 1975.9905,-180 1969.9905,-180 1963.9905,-174 1963.9905,-168 1963.9905,-168 1963.9905,-156 1963.9905,-156 1963.9905,-150 1969.9905,-144 1975.9905,-144 1975.9905,-144 2047.9905,-144 2047.9905,-144 2053.9905,-144 2059.9905,-150 2059.9905,-156 2059.9905,-156 2059.9905,-168 2059.9905,-168 2059.9905,-174 2053.9905,-180 2047.9905,-180"/>
<text text-anchor="middle" x="2011.9905" y="-165" font-family="sans" font-size="10.00" fill="#000000">merry_go_round</text>
<text text-anchor="middle" x="2011.9905" y="-154" font-family="sans" font-size="10.00" fill="#000000">chr_cs: 2</text>
</g>
<!-- 21&#45;&gt;23 -->
<g id="edge61" class="edge">
<title>21&#45;&gt;23</title>
<path fill="none" stroke="#c0c0c0" stroke-width="2" d="M1192.8178,-232.7109C1325.1023,-227.7786 1786.5909,-208.9995 1953.8071,-179.913"/>
<polygon fill="#c0c0c0" stroke="#c0c0c0" stroke-width="2" points="1954.4688,-183.3501 1963.6813,-178.1175 1953.2165,-176.463 1954.4688,-183.3501"/>
</g>
<!-- 25 -->
<g id="node26" class="node">
<title>25</title>
<path fill="none" stroke="#d85656" stroke-width="2" d="M2161.9905,-180C2161.9905,-180 2089.9905,-180 2089.9905,-180 2083.9905,-180 2077.9905,-174 2077.9905,-168 2077.9905,-168 2077.9905,-156 2077.9905,-156 2077.9905,-150 2083.9905,-144 2089.9905,-144 2089.9905,-144 2161.9905,-144 2161.9905,-144 2167.9905,-144 2173.9905,-150 2173.9905,-156 2173.9905,-156 2173.9905,-168 2173.9905,-168 2173.9905,-174 2167.9905,-180 2161.9905,-180"/>
<text text-anchor="middle" x="2125.9905" y="-165" font-family="sans" font-size="10.00" fill="#000000">merry_go_round</text>
<text text-anchor="middle" x="2125.9905" y="-154" font-family="sans" font-size="10.00" fill="#000000">chr_cs: 3</text>
</g>
<!-- 21&#45;&gt;25 -->
<g id="edge63" class="edge">
<title>21&#45;&gt;25</title>
<path fill="none" stroke="#c0c0c0" stroke-width="2" d="M1192.8047,-233.0592C1337.0978,-229.0903 1876.8065,-212.4807 2067.7751,-179.9098"/>
<polygon fill="#c0c0c0" stroke="#c0c0c0" stroke-width="2" points="2068.4545,-183.344 2077.6867,-178.1461 2067.2281,-176.4522 2068.4545,-183.344"/>
</g>
<!-- 27 -->
<g id="node28" class="node">
<title>27</title>
<path fill="none" stroke="#d85656" stroke-width="2" d="M2275.9905,-180C2275.9905,-180 2203.9905,-180 2203.9905,-180 2197.9905,-180 2191.9905,-174 2191.9905,-168 2191.9905,-168 2191.9905,-156 2191.9905,-156 2191.9905,-150 2197.9905,-144 2203.9905,-144 2203.9905,-144 2275.9905,-144 2275.9905,-144 2281.9905,-144 2287.9905,-150 2287.9905,-156 2287.9905,-156 2287.9905,-168 2287.9905,-168 2287.9905,-174 2281.9905,-180 2275.9905,-180"/>
<text text-anchor="middle" x="2239.9905" y="-165" font-family="sans" font-size="10.00" fill="#000000">merry_go_round</text>
<text text-anchor="middle" x="2239.9905" y="-154" font-family="sans" font-size="10.00" fill="#000000">chr_cs: 4</text>
</g>
<!-- 21&#45;&gt;27 -->
<g id="edge65" class="edge">
<title>21&#45;&gt;27</title>
<path fill="none" stroke="#c0c0c0" stroke-width="2" d="M1192.6517,-233.3335C1347.9849,-230.2474 1966.9763,-216.0098 2181.7714,-179.9043"/>
<polygon fill="#c0c0c0" stroke="#c0c0c0" stroke-width="2" points="2182.4438,-183.3399 2191.6907,-178.1684 2181.2371,-176.4447 2182.4438,-183.3399"/>
</g>
<!-- 29 -->
<g id="node30" class="node">
<title>29</title>
<path fill="none" stroke="#d85656" stroke-width="2" d="M2389.9905,-180C2389.9905,-180 2317.9905,-180 2317.9905,-180 2311.9905,-180 2305.9905,-174 2305.9905,-168 2305.9905,-168 2305.9905,-156 2305.9905,-156 2305.9905,-150 2311.9905,-144 2317.9905,-144 2317.9905,-144 2389.9905,-144 2389.9905,-144 2395.9905,-144 2401.9905,-150 2401.9905,-156 2401.9905,-156 2401.9905,-168 2401.9905,-168 2401.9905,-174 2395.9905,-180 2389.9905,-180"/>
<text text-anchor="middle" x="2353.9905" y="-165" font-family="sans" font-size="10.00" fill="#000000">merry_go_round</text>
<text text-anchor="middle" x="2353.9905" y="-154" font-family="sans" font-size="10.00" fill="#000000">chr_cs: 5</text>
</g>
<!-- 21&#45;&gt;29 -->
<g id="edge67" class="edge">
<title>21&#45;&gt;29</title>
<path fill="none" stroke="#c0c0c0" stroke-width="2" d="M1192.594,-233.5507C1358.4574,-231.2711 2057.0088,-219.5657 2295.6963,-179.9123"/>
<polygon fill="#c0c0c0" stroke="#c0c0c0" stroke-width="2" points="2296.4352,-183.3366 2305.694,-178.1863 2295.2443,-176.4387 2296.4352,-183.3366"/>
</g>
<!-- 31 -->
<g id="node32" class="node">
<title>31</title>
<path fill="none" stroke="#d85656" stroke-width="2" d="M2503.9905,-180C2503.9905,-180 2431.9905,-180 2431.9905,-180 2425.9905,-180 2419.9905,-174 2419.9905,-168 2419.9905,-168 2419.9905,-156 2419.9905,-156 2419.9905,-150 2425.9905,-144 2431.9905,-144 2431.9905,-144 2503.9905,-144 2503.9905,-144 2509.9905,-144 2515.9905,-150 2515.9905,-156 2515.9905,-156 2515.9905,-168 2515.9905,-168 2515.9905,-174 2509.9905,-180 2503.9905,-180"/>
<text text-anchor="middle" x="2467.9905" y="-165" font-family="sans" font-size="10.00" fill="#000000">merry_go_round</text>
<text text-anchor="middle" x="2467.9905" y="-154" font-family="sans" font-size="10.00" fill="#000000">chr_cs: 6</text>
</g>
<!-- 21&#45;&gt;31 -->
<g id="edge69" class="edge">
<title>21&#45;&gt;31</title>
<path fill="none" stroke="#c0c0c0" stroke-width="2" d="M1192.5378,-233.7283C1368.4394,-232.1943 2147.4181,-223.1401 2409.8324,-179.8865"/>
<polygon fill="#c0c0c0" stroke="#c0c0c0" stroke-width="2" points="2410.429,-183.3354 2419.6966,-178.2009 2409.2499,-176.4354 2410.429,-183.3354"/>
</g>
<!-- 33 -->
<g id="node34" class="node">
<title>33</title>
<path fill="none" stroke="#d85656" stroke-width="2" d="M109.9905,-180C109.9905,-180 37.9905,-180 37.9905,-180 31.9905,-180 25.9905,-174 25.9905,-168 25.9905,-168 25.9905,-156 25.9905,-156 25.9905,-150 31.9905,-144 37.9905,-144 37.9905,-144 109.9905,-144 109.9905,-144 115.9905,-144 121.9905,-150 121.9905,-156 121.9905,-156 121.9905,-168 121.9905,-168 121.9905,-174 115.9905,-180 109.9905,-180"/>
<text text-anchor="middle" x="73.9905" y="-165" font-family="sans" font-size="10.00" fill="#000000">merry_go_round</text>
<text text-anchor="middle" x="73.9905" y="-154" font-family="sans" font-size="10.00" fill="#000000">chr_cs: 7</text>
</g>
<!-- 21&#45;&gt;33 -->
<g id="edge71" class="edge">
<title>21&#45;&gt;33</title>
<path fill="none" stroke="#c0c0c0" stroke-width="2" d="M1121.284,-226.4742C1101.785,-222.6744 1077.161,-218.377 1054.9905,-216 649.6464,-172.5411 537.6751,-249.2522 132.2198,-179.933"/>
<polygon fill="#c0c0c0" stroke="#c0c0c0" stroke-width="2" points="132.7321,-176.4697 122.282,-178.2149 131.5395,-183.3674 132.7321,-176.4697"/>
</g>
<!-- 35 -->
<g id="node36" class="node">
<title>35</title>
<path fill="none" stroke="#d85656" stroke-width="2" d="M223.9905,-180C223.9905,-180 151.9905,-180 151.9905,-180 145.9905,-180 139.9905,-174 139.9905,-168 139.9905,-168 139.9905,-156 139.9905,-156 139.9905,-150 145.9905,-144 151.9905,-144 151.9905,-144 223.9905,-144 223.9905,-144 229.9905,-144 235.9905,-150 235.9905,-156 235.9905,-156 235.9905,-168 235.9905,-168 235.9905,-174 229.9905,-180 223.9905,-180"/>
<text text-anchor="middle" x="187.9905" y="-165" font-family="sans" font-size="10.00" fill="#000000">merry_go_round</text>
<text text-anchor="middle" x="187.9905" y="-154" font-family="sans" font-size="10.00" fill="#000000">chr_cs: 8</text>
</g>
<!-- 21&#45;&gt;35 -->
<g id="edge73" class="edge">
<title>21&#45;&gt;35</title>
<path fill="none" stroke="#c0c0c0" stroke-width="2" d="M1121.2788,-226.5226C1101.7782,-222.737 1077.1545,-218.4377 1054.9905,-216 700.1181,-176.9697 601.6543,-241.574 246.3351,-179.9605"/>
<polygon fill="#c0c0c0" stroke="#c0c0c0" stroke-width="2" points="246.7398,-176.4781 236.2852,-178.1962 245.5294,-183.3727 246.7398,-176.4781"/>
</g>
<!-- 37 -->
<g id="node38" class="node">
<title>37</title>
<path fill="none" stroke="#d85656" stroke-width="2" d="M337.9905,-180C337.9905,-180 265.9905,-180 265.9905,-180 259.9905,-180 253.9905,-174 253.9905,-168 253.9905,-168 253.9905,-156 253.9905,-156 253.9905,-150 259.9905,-144 265.9905,-144 265.9905,-144 337.9905,-144 337.9905,-144 343.9905,-144 349.9905,-150 349.9905,-156 349.9905,-156 349.9905,-168 349.9905,-168 349.9905,-174 343.9905,-180 337.9905,-180"/>
<text text-anchor="middle" x="301.9905" y="-165" font-family="sans" font-size="10.00" fill="#000000">merry_go_round</text>
<text text-anchor="middle" x="301.9905" y="-154" font-family="sans" font-size="10.00" fill="#000000">chr_cs: 9</text>
</g>
<!-- 21&#45;&gt;37 -->
<g id="edge75" class="edge">
<title>21&#45;&gt;37</title>
<path fill="none" stroke="#c0c0c0" stroke-width="2" d="M1121.2716,-226.5868C1101.769,-222.82 1077.1455,-218.5182 1054.9905,-216 750.5313,-181.3949 665.6187,-233.9303 360.3139,-179.9674"/>
<polygon fill="#c0c0c0" stroke="#c0c0c0" stroke-width="2" points="360.7502,-176.4899 350.2897,-178.1715 359.5157,-183.3802 360.7502,-176.4899"/>
</g>
<!-- 39 -->
<g id="node40" class="node">
<title>39</title>
<path fill="none" stroke="#d85656" stroke-width="2" d="M451.9905,-180C451.9905,-180 379.9905,-180 379.9905,-180 373.9905,-180 367.9905,-174 367.9905,-168 367.9905,-168 367.9905,-156 367.9905,-156 367.9905,-150 373.9905,-144 379.9905,-144 379.9905,-144 451.9905,-144 451.9905,-144 457.9905,-144 463.9905,-150 463.9905,-156 463.9905,-156 463.9905,-168 463.9905,-168 463.9905,-174 457.9905,-180 451.9905,-180"/>
<text text-anchor="middle" x="415.9905" y="-165" font-family="sans" font-size="10.00" fill="#000000">merry_go_round</text>
<text text-anchor="middle" x="415.9905" y="-154" font-family="sans" font-size="10.00" fill="#000000">chr_cs: 10</text>
</g>
<!-- 21&#45;&gt;39 -->
<g id="edge77" class="edge">
<title>21&#45;&gt;39</title>
<path fill="none" stroke="#c0c0c0" stroke-width="2" d="M1121.2612,-226.676C1101.7555,-222.9353 1077.1325,-218.63 1054.9905,-216 800.9057,-185.8202 729.5888,-226.3199 474.2383,-179.9686"/>
<polygon fill="#c0c0c0" stroke="#c0c0c0" stroke-width="2" points="474.7646,-176.5067 464.296,-178.1372 473.4964,-183.3909 474.7646,-176.5067"/>
</g>
<!-- 41 -->
<g id="node42" class="node">
<title>41</title>
<path fill="none" stroke="#d85656" stroke-width="2" d="M565.9905,-180C565.9905,-180 493.9905,-180 493.9905,-180 487.9905,-180 481.9905,-174 481.9905,-168 481.9905,-168 481.9905,-156 481.9905,-156 481.9905,-150 487.9905,-144 493.9905,-144 493.9905,-144 565.9905,-144 565.9905,-144 571.9905,-144 577.9905,-150 577.9905,-156 577.9905,-156 577.9905,-168 577.9905,-168 577.9905,-174 571.9905,-180 565.9905,-180"/>
<text text-anchor="middle" x="529.9905" y="-165" font-family="sans" font-size="10.00" fill="#000000">merry_go_round</text>
<text text-anchor="middle" x="529.9905" y="-154" font-family="sans" font-size="10.00" fill="#000000">chr_cs: 11</text>
</g>
<!-- 21&#45;&gt;41 -->
<g id="edge79" class="edge">
<title>21&#45;&gt;41</title>
<path fill="none" stroke="#c0c0c0" stroke-width="2" d="M1121.245,-226.8083C1101.7346,-223.1064 1077.1121,-218.7959 1054.9905,-216 851.2564,-190.2503 793.5922,-218.7517 587.9005,-179.9104"/>
<polygon fill="#c0c0c0" stroke="#c0c0c0" stroke-width="2" points="588.4729,-176.4565 577.9925,-178.0095 587.1539,-183.3311 588.4729,-176.4565"/>
</g>
<!-- 43 -->
<g id="node44" class="node">
<title>43</title>
<path fill="none" stroke="#d85656" stroke-width="2" d="M679.9905,-180C679.9905,-180 607.9905,-180 607.9905,-180 601.9905,-180 595.9905,-174 595.9905,-168 595.9905,-168 595.9905,-156 595.9905,-156 595.9905,-150 601.9905,-144 607.9905,-144 607.9905,-144 679.9905,-144 679.9905,-144 685.9905,-144 691.9905,-150 691.9905,-156 691.9905,-156 691.9905,-168 691.9905,-168 691.9905,-174 685.9905,-180 679.9905,-180"/>
<text text-anchor="middle" x="643.9905" y="-165" font-family="sans" font-size="10.00" fill="#000000">merry_go_round</text>
<text text-anchor="middle" x="643.9905" y="-154" font-family="sans" font-size="10.00" fill="#000000">chr_cs: 12</text>
</g>
<!-- 21&#45;&gt;43 -->
<g id="edge81" class="edge">
<title>21&#45;&gt;43</title>
<path fill="none" stroke="#c0c0c0" stroke-width="2" d="M1121.2163,-227.0249C1101.6974,-223.3865 1077.0761,-219.0675 1054.9905,-216 901.5617,-194.6899 857.6588,-211.2675 701.9397,-179.9545"/>
<polygon fill="#c0c0c0" stroke="#c0c0c0" stroke-width="2" points="702.5082,-176.4984 692.0097,-177.9239 701.1057,-183.3565 702.5082,-176.4984"/>
</g>
<!-- 45 -->
<g id="node46" class="node">
<title>45</title>
<path fill="none" stroke="#d85656" stroke-width="2" d="M793.9905,-180C793.9905,-180 721.9905,-180 721.9905,-180 715.9905,-180 709.9905,-174 709.9905,-168 709.9905,-168 709.9905,-156 709.9905,-156 709.9905,-150 715.9905,-144 721.9905,-144 721.9905,-144 793.9905,-144 793.9905,-144 799.9905,-144 805.9905,-150 805.9905,-156 805.9905,-156 805.9905,-168 805.9905,-168 805.9905,-174 799.9905,-180 793.9905,-180"/>
<text text-anchor="middle" x="757.9905" y="-165" font-family="sans" font-size="10.00" fill="#000000">merry_go_round</text>
<text text-anchor="middle" x="757.9905" y="-154" font-family="sans" font-size="10.00" fill="#000000">chr_cs: 13</text>
</g>
<!-- 21&#45;&gt;45 -->
<g id="edge83" class="edge">
<title>21&#45;&gt;45</title>
<path fill="none" stroke="#c0c0c0" stroke-width="2" d="M1121.1532,-227.443C1101.6158,-223.927 1076.9969,-219.5916 1054.9905,-216 951.6576,-199.1353 921.8089,-204.0014 815.8516,-180.0115"/>
<polygon fill="#c0c0c0" stroke="#c0c0c0" stroke-width="2" points="816.5755,-176.5867 806.0457,-177.7591 815.0084,-183.409 816.5755,-176.5867"/>
</g>
<!-- 47 -->
<g id="node48" class="node">
<title>47</title>
<path fill="none" stroke="#d85656" stroke-width="2" d="M907.9905,-180C907.9905,-180 835.9905,-180 835.9905,-180 829.9905,-180 823.9905,-174 823.9905,-168 823.9905,-168 823.9905,-156 823.9905,-156 823.9905,-150 829.9905,-144 835.9905,-144 835.9905,-144 907.9905,-144 907.9905,-144 913.9905,-144 919.9905,-150 919.9905,-156 919.9905,-156 919.9905,-168 919.9905,-168 919.9905,-174 913.9905,-180 907.9905,-180"/>
<text text-anchor="middle" x="871.9905" y="-165" font-family="sans" font-size="10.00" fill="#000000">merry_go_round</text>
<text text-anchor="middle" x="871.9905" y="-154" font-family="sans" font-size="10.00" fill="#000000">chr_cs: 14</text>
</g>
<!-- 21&#45;&gt;47 -->
<g id="edge85" class="edge">
<title>21&#45;&gt;47</title>
<path fill="none" stroke="#c0c0c0" stroke-width="2" d="M1121.2416,-226.3844C1078.1116,-217.0099 1003.2255,-200.1396 929.9726,-180.1782"/>
<polygon fill="#c0c0c0" stroke="#c0c0c0" stroke-width="2" points="930.6887,-176.7453 920.1187,-177.4712 928.8343,-183.4953 930.6887,-176.7453"/>
</g>
<!-- 49 -->
<g id="node50" class="node">
<title>49</title>
<path fill="none" stroke="#d85656" stroke-width="2" d="M1021.9905,-180C1021.9905,-180 949.9905,-180 949.9905,-180 943.9905,-180 937.9905,-174 937.9905,-168 937.9905,-168 937.9905,-156 937.9905,-156 937.9905,-150 943.9905,-144 949.9905,-144 949.9905,-144 1021.9905,-144 1021.9905,-144 1027.9905,-144 1033.9905,-150 1033.9905,-156 1033.9905,-156 1033.9905,-168 1033.9905,-168 1033.9905,-174 1027.9905,-180 1021.9905,-180"/>
<text text-anchor="middle" x="985.9905" y="-165" font-family="sans" font-size="10.00" fill="#000000">merry_go_round</text>
<text text-anchor="middle" x="985.9905" y="-154" font-family="sans" font-size="10.00" fill="#000000">chr_cs: 15</text>
</g>
<!-- 21&#45;&gt;49 -->
<g id="edge87" class="edge">
<title>21&#45;&gt;49</title>
<path fill="none" stroke="#c0c0c0" stroke-width="2" d="M1121.1433,-218.9064C1097.0517,-208.7626 1064.9112,-195.2298 1038.0175,-183.9061"/>
<polygon fill="#c0c0c0" stroke="#c0c0c0" stroke-width="2" points="1039.3201,-180.657 1028.7455,-180.0021 1036.6036,-187.1085 1039.3201,-180.657"/>
</g>
<!-- 51 -->
<g id="node52" class="node">
<title>51</title>
<path fill="none" stroke="#d85656" stroke-width="2" d="M1135.9905,-180C1135.9905,-180 1063.9905,-180 1063.9905,-180 1057.9905,-180 1051.9905,-174 1051.9905,-168 1051.9905,-168 1051.9905,-156 1051.9905,-156 1051.9905,-150 1057.9905,-144 1063.9905,-144 1063.9905,-144 1135.9905,-144 1135.9905,-144 1141.9905,-144 1147.9905,-150 1147.9905,-156 1147.9905,-156 1147.9905,-168 1147.9905,-168 1147.9905,-174 1141.9905,-180 1135.9905,-180"/>
<text text-anchor="middle" x="1099.9905" y="-165" font-family="sans" font-size="10.00" fill="#000000">merry_go_round</text>
<text text-anchor="middle" x="1099.9905" y="-154" font-family="sans" font-size="10.00" fill="#000000">chr_cs: 16</text>
</g>
<!-- 21&#45;&gt;51 -->
<g id="edge89" class="edge">
<title>21&#45;&gt;51</title>
<path fill="none" stroke="#c0c0c0" stroke-width="2" d="M1142.607,-215.8314C1136.0419,-207.5386 1128.1398,-197.557 1120.9327,-188.4533"/>
<polygon fill="#c0c0c0" stroke="#c0c0c0" stroke-width="2" points="1123.5189,-186.0813 1114.5677,-180.4133 1118.0305,-190.4262 1123.5189,-186.0813"/>
</g>
<!-- 53 -->
<g id="node54" class="node">
<title>53</title>
<path fill="none" stroke="#d85656" stroke-width="2" d="M1249.9905,-180C1249.9905,-180 1177.9905,-180 1177.9905,-180 1171.9905,-180 1165.9905,-174 1165.9905,-168 1165.9905,-168 1165.9905,-156 1165.9905,-156 1165.9905,-150 1171.9905,-144 1177.9905,-144 1177.9905,-144 1249.9905,-144 1249.9905,-144 1255.9905,-144 1261.9905,-150 1261.9905,-156 1261.9905,-156 1261.9905,-168 1261.9905,-168 1261.9905,-174 1255.9905,-180 1249.9905,-180"/>
<text text-anchor="middle" x="1213.9905" y="-165" font-family="sans" font-size="10.00" fill="#000000">merry_go_round</text>
<text text-anchor="middle" x="1213.9905" y="-154" font-family="sans" font-size="10.00" fill="#000000">chr_cs: 17</text>
</g>
<!-- 21&#45;&gt;53 -->
<g id="edge91" class="edge">
<title>21&#45;&gt;53</title>
<path fill="none" stroke="#c0c0c0" stroke-width="2" d="M1171.374,-215.8314C1177.9391,-207.5386 1185.8412,-197.557 1193.0483,-188.4533"/>
<polygon fill="#c0c0c0" stroke="#c0c0c0" stroke-width="2" points="1195.9504,-190.4262 1199.4133,-180.4133 1190.4621,-186.0813 1195.9504,-190.4262"/>
</g>
<!-- 55 -->
<g id="node56" class="node">
<title>55</title>
<path fill="none" stroke="#d85656" stroke-width="2" d="M1363.9905,-180C1363.9905,-180 1291.9905,-180 1291.9905,-180 1285.9905,-180 1279.9905,-174 1279.9905,-168 1279.9905,-168 1279.9905,-156 1279.9905,-156 1279.9905,-150 1285.9905,-144 1291.9905,-144 1291.9905,-144 1363.9905,-144 1363.9905,-144 1369.9905,-144 1375.9905,-150 1375.9905,-156 1375.9905,-156 1375.9905,-168 1375.9905,-168 1375.9905,-174 1369.9905,-180 1363.9905,-180"/>
<text text-anchor="middle" x="1327.9905" y="-165" font-family="sans" font-size="10.00" fill="#000000">merry_go_round</text>
<text text-anchor="middle" x="1327.9905" y="-154" font-family="sans" font-size="10.00" fill="#000000">chr_cs: 18</text>
</g>
<!-- 21&#45;&gt;55 -->
<g id="edge93" class="edge">
<title>21&#45;&gt;55</title>
<path fill="none" stroke="#c0c0c0" stroke-width="2" d="M1192.8377,-218.9064C1216.9293,-208.7626 1249.0698,-195.2298 1275.9635,-183.9061"/>
<polygon fill="#c0c0c0" stroke="#c0c0c0" stroke-width="2" points="1277.3773,-187.1085 1285.2355,-180.0021 1274.6609,-180.657 1277.3773,-187.1085"/>
</g>
<!-- 57 -->
<g id="node58" class="node">
<title>57</title>
<path fill="none" stroke="#d85656" stroke-width="2" d="M1477.9905,-180C1477.9905,-180 1405.9905,-180 1405.9905,-180 1399.9905,-180 1393.9905,-174 1393.9905,-168 1393.9905,-168 1393.9905,-156 1393.9905,-156 1393.9905,-150 1399.9905,-144 1405.9905,-144 1405.9905,-144 1477.9905,-144 1477.9905,-144 1483.9905,-144 1489.9905,-150 1489.9905,-156 1489.9905,-156 1489.9905,-168 1489.9905,-168 1489.9905,-174 1483.9905,-180 1477.9905,-180"/>
<text text-anchor="middle" x="1441.9905" y="-165" font-family="sans" font-size="10.00" fill="#000000">merry_go_round</text>
<text text-anchor="middle" x="1441.9905" y="-154" font-family="sans" font-size="10.00" fill="#000000">chr_cs: 19</text>
</g>
<!-- 21&#45;&gt;57 -->
<g id="edge95" class="edge">
<title>21&#45;&gt;57</title>
<path fill="none" stroke="#c0c0c0" stroke-width="2" d="M1192.7394,-226.3844C1235.8694,-217.0099 1310.7554,-200.1396 1384.0084,-180.1782"/>
<polygon fill="#c0c0c0" stroke="#c0c0c0" stroke-width="2" points="1385.1466,-183.4953 1393.8622,-177.4712 1383.2923,-176.7453 1385.1466,-183.4953"/>
</g>
<!-- 59 -->
<g id="node60" class="node">
<title>59</title>
<path fill="none" stroke="#d85656" stroke-width="2" d="M1591.9905,-180C1591.9905,-180 1519.9905,-180 1519.9905,-180 1513.9905,-180 1507.9905,-174 1507.9905,-168 1507.9905,-168 1507.9905,-156 1507.9905,-156 1507.9905,-150 1513.9905,-144 1519.9905,-144 1519.9905,-144 1591.9905,-144 1591.9905,-144 1597.9905,-144 1603.9905,-150 1603.9905,-156 1603.9905,-156 1603.9905,-168 1603.9905,-168 1603.9905,-174 1597.9905,-180 1591.9905,-180"/>
<text text-anchor="middle" x="1555.9905" y="-165" font-family="sans" font-size="10.00" fill="#000000">merry_go_round</text>
<text text-anchor="middle" x="1555.9905" y="-154" font-family="sans" font-size="10.00" fill="#000000">chr_cs: 20</text>
</g>
<!-- 21&#45;&gt;59 -->
<g id="edge97" class="edge">
<title>21&#45;&gt;59</title>
<path fill="none" stroke="#c0c0c0" stroke-width="2" d="M1192.7788,-230.1333C1253.6908,-223.1679 1381.4613,-206.8911 1498.1185,-180.0235"/>
<polygon fill="#c0c0c0" stroke="#c0c0c0" stroke-width="2" points="1498.987,-183.415 1507.929,-177.7324 1497.395,-176.5984 1498.987,-183.415"/>
</g>
<!-- 61 -->
<g id="node62" class="node">
<title>61</title>
<path fill="none" stroke="#d85656" stroke-width="2" d="M1705.9905,-180C1705.9905,-180 1633.9905,-180 1633.9905,-180 1627.9905,-180 1621.9905,-174 1621.9905,-168 1621.9905,-168 1621.9905,-156 1621.9905,-156 1621.9905,-150 1627.9905,-144 1633.9905,-144 1633.9905,-144 1705.9905,-144 1705.9905,-144 1711.9905,-144 1717.9905,-150 1717.9905,-156 1717.9905,-156 1717.9905,-168 1717.9905,-168 1717.9905,-174 1711.9905,-180 1705.9905,-180"/>
<text text-anchor="middle" x="1669.9905" y="-165" font-family="sans" font-size="10.00" fill="#000000">merry_go_round</text>
<text text-anchor="middle" x="1669.9905" y="-154" font-family="sans" font-size="10.00" fill="#000000">chr_cs: 21</text>
</g>
<!-- 21&#45;&gt;61 -->
<g id="edge99" class="edge">
<title>21&#45;&gt;61</title>
<path fill="none" stroke="#c0c0c0" stroke-width="2" d="M1192.5484,-232.0698C1268.2243,-227.476 1450.7885,-213.8119 1611.8708,-180.0159"/>
<polygon fill="#c0c0c0" stroke="#c0c0c0" stroke-width="2" points="1612.9081,-183.3735 1621.9592,-177.8665 1611.4494,-176.5272 1612.9081,-183.3735"/>
</g>
<!-- 63 -->
<g id="node64" class="node">
<title>63</title>
<path fill="none" stroke="#d85656" stroke-width="2" d="M1819.9905,-180C1819.9905,-180 1747.9905,-180 1747.9905,-180 1741.9905,-180 1735.9905,-174 1735.9905,-168 1735.9905,-168 1735.9905,-156 1735.9905,-156 1735.9905,-150 1741.9905,-144 1747.9905,-144 1747.9905,-144 1819.9905,-144 1819.9905,-144 1825.9905,-144 1831.9905,-150 1831.9905,-156 1831.9905,-156 1831.9905,-168 1831.9905,-168 1831.9905,-174 1825.9905,-180 1819.9905,-180"/>
<text text-anchor="middle" x="1783.9905" y="-165" font-family="sans" font-size="10.00" fill="#000000">merry_go_round</text>
<text text-anchor="middle" x="1783.9905" y="-154" font-family="sans" font-size="10.00" fill="#000000">chr_cs: 22</text>
</g>
<!-- 21&#45;&gt;63 -->
<g id="edge101" class="edge">
<title>21&#45;&gt;63</title>
<path fill="none" stroke="#c0c0c0" stroke-width="2" d="M1192.7261,-233.2303C1281.6484,-230.7612 1519.9285,-220.7479 1725.8841,-179.9759"/>
<polygon fill="#c0c0c0" stroke="#c0c0c0" stroke-width="2" points="1726.8618,-183.3495 1735.9762,-177.9479 1725.4826,-176.4867 1726.8618,-183.3495"/>
</g>
<!-- 22 -->
<g id="node23" class="node">
<title>22</title>
<path fill="none" stroke="#569ad8" stroke-width="2" d="M2006.4905,-108C2006.4905,-108 1967.4905,-108 1967.4905,-108 1961.4905,-108 1955.4905,-102 1955.4905,-96 1955.4905,-96 1955.4905,-84 1955.4905,-84 1955.4905,-78 1961.4905,-72 1967.4905,-72 1967.4905,-72 2006.4905,-72 2006.4905,-72 2012.4905,-72 2018.4905,-78 2018.4905,-84 2018.4905,-84 2018.4905,-96 2018.4905,-96 2018.4905,-102 2012.4905,-108 2006.4905,-108"/>
<text text-anchor="middle" x="1986.9905" y="-87.5" font-family="sans" font-size="10.00" fill="#000000">run_coloc</text>
</g>
<!-- 22&#45;&gt;0 -->
<g id="edge4" class="edge">
<title>22&#45;&gt;0</title>
<path fill="none" stroke="#c0c0c0" stroke-width="2" d="M1955.25,-80.9228C1942.5227,-77.6123 1927.6579,-74.1557 1913.9905,-72 1639.6796,-28.7343 1304.0073,-20.1099 1193.3308,-18.4109"/>
<polygon fill="#c0c0c0" stroke="#c0c0c0" stroke-width="2" points="1193.0826,-14.9071 1183.0334,-18.2632 1192.9821,-21.9064 1193.0826,-14.9071"/>
</g>
<!-- 23&#45;&gt;22 -->
<g id="edge60" class="edge">
<title>23&#45;&gt;22</title>
<path fill="none" stroke="#c0c0c0" stroke-width="2" d="M2005.6819,-143.8314C2002.9788,-136.0463 1999.7589,-126.7729 1996.7595,-118.1347"/>
<polygon fill="#c0c0c0" stroke="#c0c0c0" stroke-width="2" points="1999.9705,-116.7119 1993.384,-108.4133 1993.3578,-119.0081 1999.9705,-116.7119"/>
</g>
<!-- 24 -->
<g id="node25" class="node">
<title>24</title>
<path fill="none" stroke="#569ad8" stroke-width="2" d="M2120.4905,-108C2120.4905,-108 2081.4905,-108 2081.4905,-108 2075.4905,-108 2069.4905,-102 2069.4905,-96 2069.4905,-96 2069.4905,-84 2069.4905,-84 2069.4905,-78 2075.4905,-72 2081.4905,-72 2081.4905,-72 2120.4905,-72 2120.4905,-72 2126.4905,-72 2132.4905,-78 2132.4905,-84 2132.4905,-84 2132.4905,-96 2132.4905,-96 2132.4905,-102 2126.4905,-108 2120.4905,-108"/>
<text text-anchor="middle" x="2100.9905" y="-87.5" font-family="sans" font-size="10.00" fill="#000000">run_coloc</text>
</g>
<!-- 24&#45;&gt;0 -->
<g id="edge5" class="edge">
<title>24&#45;&gt;0</title>
<path fill="none" stroke="#c0c0c0" stroke-width="2" d="M2069.2602,-80.8575C2056.5342,-77.538 2041.6678,-74.0923 2027.9905,-72 1863.2492,-46.7984 1338.8006,-25.0729 1193.5811,-19.4256"/>
<polygon fill="#c0c0c0" stroke="#c0c0c0" stroke-width="2" points="1193.5306,-15.9211 1183.4028,-19.0321 1193.2601,-22.9159 1193.5306,-15.9211"/>
</g>
<!-- 25&#45;&gt;24 -->
<g id="edge62" class="edge">
<title>25&#45;&gt;24</title>
<path fill="none" stroke="#c0c0c0" stroke-width="2" d="M2119.6819,-143.8314C2116.9788,-136.0463 2113.7589,-126.7729 2110.7595,-118.1347"/>
<polygon fill="#c0c0c0" stroke="#c0c0c0" stroke-width="2" points="2113.9705,-116.7119 2107.384,-108.4133 2107.3578,-119.0081 2113.9705,-116.7119"/>
</g>
<!-- 26 -->
<g id="node27" class="node">
<title>26</title>
<path fill="none" stroke="#569ad8" stroke-width="2" d="M2234.4905,-108C2234.4905,-108 2195.4905,-108 2195.4905,-108 2189.4905,-108 2183.4905,-102 2183.4905,-96 2183.4905,-96 2183.4905,-84 2183.4905,-84 2183.4905,-78 2189.4905,-72 2195.4905,-72 2195.4905,-72 2234.4905,-72 2234.4905,-72 2240.4905,-72 2246.4905,-78 2246.4905,-84 2246.4905,-84 2246.4905,-96 2246.4905,-96 2246.4905,-102 2240.4905,-108 2234.4905,-108"/>
<text text-anchor="middle" x="2214.9905" y="-87.5" font-family="sans" font-size="10.00" fill="#000000">run_coloc</text>
</g>
<!-- 26&#45;&gt;0 -->
<g id="edge6" class="edge">
<title>26&#45;&gt;0</title>
<path fill="none" stroke="#c0c0c0" stroke-width="2" d="M2183.2677,-80.8073C2170.5429,-77.4808 2155.6751,-74.0435 2141.9905,-72 1953.6586,-43.8768 1349.7194,-23.8997 1193.2793,-19.1078"/>
<polygon fill="#c0c0c0" stroke="#c0c0c0" stroke-width="2" points="1193.3168,-15.6075 1183.2149,-18.8017 1193.1039,-22.6042 1193.3168,-15.6075"/>
</g>
<!-- 27&#45;&gt;26 -->
<g id="edge64" class="edge">
<title>27&#45;&gt;26</title>
<path fill="none" stroke="#c0c0c0" stroke-width="2" d="M2233.6819,-143.8314C2230.9788,-136.0463 2227.7589,-126.7729 2224.7595,-118.1347"/>
<polygon fill="#c0c0c0" stroke="#c0c0c0" stroke-width="2" points="2227.9705,-116.7119 2221.384,-108.4133 2221.3578,-119.0081 2227.9705,-116.7119"/>
</g>
<!-- 28 -->
<g id="node29" class="node">
<title>28</title>
<path fill="none" stroke="#569ad8" stroke-width="2" d="M2348.4905,-108C2348.4905,-108 2309.4905,-108 2309.4905,-108 2303.4905,-108 2297.4905,-102 2297.4905,-96 2297.4905,-96 2297.4905,-84 2297.4905,-84 2297.4905,-78 2303.4905,-72 2309.4905,-72 2309.4905,-72 2348.4905,-72 2348.4905,-72 2354.4905,-72 2360.4905,-78 2360.4905,-84 2360.4905,-84 2360.4905,-96 2360.4905,-96 2360.4905,-102 2354.4905,-108 2348.4905,-108"/>
<text text-anchor="middle" x="2328.9905" y="-87.5" font-family="sans" font-size="10.00" fill="#000000">run_coloc</text>
</g>
<!-- 28&#45;&gt;0 -->
<g id="edge7" class="edge">
<title>28&#45;&gt;0</title>
<path fill="none" stroke="#c0c0c0" stroke-width="2" d="M2297.2737,-80.7674C2284.5496,-77.4354 2269.6809,-74.0048 2255.9905,-72 2044.1538,-40.9796 1361.1537,-22.9078 1193.4426,-18.8687"/>
<polygon fill="#c0c0c0" stroke="#c0c0c0" stroke-width="2" points="1193.4537,-15.3681 1183.3729,-18.6282 1193.2865,-22.3661 1193.4537,-15.3681"/>
</g>
<!-- 29&#45;&gt;28 -->
<g id="edge66" class="edge">
<title>29&#45;&gt;28</title>
<path fill="none" stroke="#c0c0c0" stroke-width="2" d="M2347.6819,-143.8314C2344.9788,-136.0463 2341.7589,-126.7729 2338.7595,-118.1347"/>
<polygon fill="#c0c0c0" stroke="#c0c0c0" stroke-width="2" points="2341.9705,-116.7119 2335.384,-108.4133 2335.3578,-119.0081 2341.9705,-116.7119"/>
</g>
<!-- 30 -->
<g id="node31" class="node">
<title>30</title>
<path fill="none" stroke="#569ad8" stroke-width="2" d="M2462.4905,-108C2462.4905,-108 2423.4905,-108 2423.4905,-108 2417.4905,-108 2411.4905,-102 2411.4905,-96 2411.4905,-96 2411.4905,-84 2411.4905,-84 2411.4905,-78 2417.4905,-72 2423.4905,-72 2423.4905,-72 2462.4905,-72 2462.4905,-72 2468.4905,-72 2474.4905,-78 2474.4905,-84 2474.4905,-84 2474.4905,-96 2474.4905,-96 2474.4905,-102 2468.4905,-108 2462.4905,-108"/>
<text text-anchor="middle" x="2442.9905" y="-87.5" font-family="sans" font-size="10.00" fill="#000000">run_coloc</text>
</g>
<!-- 30&#45;&gt;0 -->
<g id="edge8" class="edge">
<title>30&#45;&gt;0</title>
<path fill="none" stroke="#c0c0c0" stroke-width="2" d="M2411.2784,-80.7349C2398.5549,-77.3985 2383.6854,-73.9733 2369.9905,-72 2134.404,-38.055 1370.9804,-21.9973 1193.2221,-18.666"/>
<polygon fill="#c0c0c0" stroke="#c0c0c0" stroke-width="2" points="1193.1341,-15.1639 1183.0709,-18.4778 1193.0042,-22.1627 1193.1341,-15.1639"/>
</g>
<!-- 31&#45;&gt;30 -->
<g id="edge68" class="edge">
<title>31&#45;&gt;30</title>
<path fill="none" stroke="#c0c0c0" stroke-width="2" d="M2461.6819,-143.8314C2458.9788,-136.0463 2455.7589,-126.7729 2452.7595,-118.1347"/>
<polygon fill="#c0c0c0" stroke="#c0c0c0" stroke-width="2" points="2455.9705,-116.7119 2449.384,-108.4133 2449.3578,-119.0081 2455.9705,-116.7119"/>
</g>
<!-- 32 -->
<g id="node33" class="node">
<title>32</title>
<path fill="none" stroke="#569ad8" stroke-width="2" d="M109.4905,-108C109.4905,-108 70.4905,-108 70.4905,-108 64.4905,-108 58.4905,-102 58.4905,-96 58.4905,-96 58.4905,-84 58.4905,-84 58.4905,-78 64.4905,-72 70.4905,-72 70.4905,-72 109.4905,-72 109.4905,-72 115.4905,-72 121.4905,-78 121.4905,-84 121.4905,-84 121.4905,-96 121.4905,-96 121.4905,-102 115.4905,-108 109.4905,-108"/>
<text text-anchor="middle" x="89.9905" y="-87.5" font-family="sans" font-size="10.00" fill="#000000">run_coloc</text>
</g>
<!-- 32&#45;&gt;0 -->
<g id="edge9" class="edge">
<title>32&#45;&gt;0</title>
<path fill="none" stroke="#c0c0c0" stroke-width="2" d="M121.7128,-80.8046C134.4376,-77.4777 149.3054,-74.0409 162.9905,-72 352.6609,-43.7143 960.8866,-23.8567 1118.437,-19.0993"/>
<polygon fill="#c0c0c0" stroke="#c0c0c0" stroke-width="2" points="1118.6822,-22.5936 1128.5728,-18.7954 1118.4723,-15.5968 1118.6822,-22.5936"/>
</g>
<!-- 33&#45;&gt;32 -->
<g id="edge70" class="edge">
<title>33&#45;&gt;32</title>
<path fill="none" stroke="#c0c0c0" stroke-width="2" d="M78.028,-143.8314C79.7392,-136.131 81.774,-126.9743 83.6757,-118.4166"/>
<polygon fill="#c0c0c0" stroke="#c0c0c0" stroke-width="2" points="87.1459,-118.9344 85.8986,-108.4133 80.3126,-117.4159 87.1459,-118.9344"/>
</g>
<!-- 34 -->
<g id="node35" class="node">
<title>34</title>
<path fill="none" stroke="#569ad8" stroke-width="2" d="M223.4905,-108C223.4905,-108 184.4905,-108 184.4905,-108 178.4905,-108 172.4905,-102 172.4905,-96 172.4905,-96 172.4905,-84 172.4905,-84 172.4905,-78 178.4905,-72 184.4905,-72 184.4905,-72 223.4905,-72 223.4905,-72 229.4905,-72 235.4905,-78 235.4905,-84 235.4905,-84 235.4905,-96 235.4905,-96 235.4905,-102 229.4905,-108 223.4905,-108"/>
<text text-anchor="middle" x="203.9905" y="-87.5" font-family="sans" font-size="10.00" fill="#000000">run_coloc</text>
</g>
<!-- 34&#45;&gt;0 -->
<g id="edge10" class="edge">
<title>34&#45;&gt;0</title>
<path fill="none" stroke="#c0c0c0" stroke-width="2" d="M235.7203,-80.8541C248.4461,-77.534 263.3127,-74.089 276.9905,-72 443.2397,-46.6095 972.8872,-24.9794 1118.5841,-19.3973"/>
<polygon fill="#c0c0c0" stroke="#c0c0c0" stroke-width="2" points="1118.9298,-22.8868 1128.7893,-19.0086 1118.6633,-15.8919 1118.9298,-22.8868"/>
</g>
<!-- 35&#45;&gt;34 -->
<g id="edge72" class="edge">
<title>35&#45;&gt;34</title>
<path fill="none" stroke="#c0c0c0" stroke-width="2" d="M192.028,-143.8314C193.7392,-136.131 195.774,-126.9743 197.6757,-118.4166"/>
<polygon fill="#c0c0c0" stroke="#c0c0c0" stroke-width="2" points="201.1459,-118.9344 199.8986,-108.4133 194.3126,-117.4159 201.1459,-118.9344"/>
</g>
<!-- 36 -->
<g id="node37" class="node">
<title>36</title>
<path fill="none" stroke="#569ad8" stroke-width="2" d="M337.4905,-108C337.4905,-108 298.4905,-108 298.4905,-108 292.4905,-108 286.4905,-102 286.4905,-96 286.4905,-96 286.4905,-84 286.4905,-84 286.4905,-78 292.4905,-72 298.4905,-72 298.4905,-72 337.4905,-72 337.4905,-72 343.4905,-72 349.4905,-78 349.4905,-84 349.4905,-84 349.4905,-96 349.4905,-96 349.4905,-102 343.4905,-108 337.4905,-108"/>
<text text-anchor="middle" x="317.9905" y="-87.5" font-family="sans" font-size="10.00" fill="#000000">run_coloc</text>
</g>
<!-- 36&#45;&gt;0 -->
<g id="edge11" class="edge">
<title>36&#45;&gt;0</title>
<path fill="none" stroke="#c0c0c0" stroke-width="2" d="M349.7302,-80.9183C362.4575,-77.6071 377.3223,-74.1513 390.9905,-72 668.1153,-28.3825 1007.291,-19.9836 1118.6429,-18.3769"/>
<polygon fill="#c0c0c0" stroke="#c0c0c0" stroke-width="2" points="1118.7459,-21.8759 1128.6979,-18.2417 1118.6517,-14.8765 1118.7459,-21.8759"/>
</g>
<!-- 37&#45;&gt;36 -->
<g id="edge74" class="edge">
<title>37&#45;&gt;36</title>
<path fill="none" stroke="#c0c0c0" stroke-width="2" d="M306.028,-143.8314C307.7392,-136.131 309.774,-126.9743 311.6757,-118.4166"/>
<polygon fill="#c0c0c0" stroke="#c0c0c0" stroke-width="2" points="315.1459,-118.9344 313.8986,-108.4133 308.3126,-117.4159 315.1459,-118.9344"/>
</g>
<!-- 38 -->
<g id="node39" class="node">
<title>38</title>
<path fill="none" stroke="#569ad8" stroke-width="2" d="M451.4905,-108C451.4905,-108 412.4905,-108 412.4905,-108 406.4905,-108 400.4905,-102 400.4905,-96 400.4905,-96 400.4905,-84 400.4905,-84 400.4905,-78 406.4905,-72 412.4905,-72 412.4905,-72 451.4905,-72 451.4905,-72 457.4905,-72 463.4905,-78 463.4905,-84 463.4905,-84 463.4905,-96 463.4905,-96 463.4905,-102 457.4905,-108 451.4905,-108"/>
<text text-anchor="middle" x="431.9905" y="-87.5" font-family="sans" font-size="10.00" fill="#000000">run_coloc</text>
</g>
<!-- 38&#45;&gt;0 -->
<g id="edge12" class="edge">
<title>38&#45;&gt;0</title>
<path fill="none" stroke="#c0c0c0" stroke-width="2" d="M463.7441,-81.0047C476.4732,-77.7054 491.3358,-74.2352 504.9905,-72 736.3478,-34.1279 1018.5465,-22.2083 1118.624,-19.0226"/>
<polygon fill="#c0c0c0" stroke="#c0c0c0" stroke-width="2" points="1118.9395,-22.5146 1128.8269,-18.7083 1118.7239,-15.5179 1118.9395,-22.5146"/>
</g>
<!-- 39&#45;&gt;38 -->
<g id="edge76" class="edge">
<title>39&#45;&gt;38</title>
<path fill="none" stroke="#c0c0c0" stroke-width="2" d="M420.028,-143.8314C421.7392,-136.131 423.774,-126.9743 425.6757,-118.4166"/>
<polygon fill="#c0c0c0" stroke="#c0c0c0" stroke-width="2" points="429.1459,-118.9344 427.8986,-108.4133 422.3126,-117.4159 429.1459,-118.9344"/>
</g>
<!-- 40 -->
<g id="node41" class="node">
<title>40</title>
<path fill="none" stroke="#569ad8" stroke-width="2" d="M565.4905,-108C565.4905,-108 526.4905,-108 526.4905,-108 520.4905,-108 514.4905,-102 514.4905,-96 514.4905,-96 514.4905,-84 514.4905,-84 514.4905,-78 520.4905,-72 526.4905,-72 526.4905,-72 565.4905,-72 565.4905,-72 571.4905,-72 577.4905,-78 577.4905,-84 577.4905,-84 577.4905,-96 577.4905,-96 577.4905,-102 571.4905,-108 565.4905,-108"/>
<text text-anchor="middle" x="545.9905" y="-87.5" font-family="sans" font-size="10.00" fill="#000000">run_coloc</text>
</g>
<!-- 40&#45;&gt;0 -->
<g id="edge13" class="edge">
<title>40&#45;&gt;0</title>
<path fill="none" stroke="#c0c0c0" stroke-width="2" d="M577.7647,-81.1274C590.4967,-77.845 605.3559,-74.3543 618.9905,-72 805.1261,-39.8593 1031.1069,-24.8524 1118.7554,-19.9253"/>
<polygon fill="#c0c0c0" stroke="#c0c0c0" stroke-width="2" points="1119.1958,-23.4065 1128.9878,-19.3609 1118.8102,-16.4171 1119.1958,-23.4065"/>
</g>
<!-- 41&#45;&gt;40 -->
<g id="edge78" class="edge">
<title>41&#45;&gt;40</title>
<path fill="none" stroke="#c0c0c0" stroke-width="2" d="M534.028,-143.8314C535.7392,-136.131 537.774,-126.9743 539.6757,-118.4166"/>
<polygon fill="#c0c0c0" stroke="#c0c0c0" stroke-width="2" points="543.1459,-118.9344 541.8986,-108.4133 536.3126,-117.4159 543.1459,-118.9344"/>
</g>
<!-- 42 -->
<g id="node43" class="node">
<title>42</title>
<path fill="none" stroke="#569ad8" stroke-width="2" d="M679.4905,-108C679.4905,-108 640.4905,-108 640.4905,-108 634.4905,-108 628.4905,-102 628.4905,-96 628.4905,-96 628.4905,-84 628.4905,-84 628.4905,-78 634.4905,-72 640.4905,-72 640.4905,-72 679.4905,-72 679.4905,-72 685.4905,-72 691.4905,-78 691.4905,-84 691.4905,-84 691.4905,-96 691.4905,-96 691.4905,-102 685.4905,-108 679.4905,-108"/>
<text text-anchor="middle" x="659.9905" y="-87.5" font-family="sans" font-size="10.00" fill="#000000">run_coloc</text>
</g>
<!-- 42&#45;&gt;0 -->
<g id="edge14" class="edge">
<title>42&#45;&gt;0</title>
<path fill="none" stroke="#c0c0c0" stroke-width="2" d="M691.7984,-81.315C704.5351,-78.0585 719.3886,-74.5365 732.9905,-72 874.3265,-45.6436 1044.6496,-28.1998 1118.648,-21.3136"/>
<polygon fill="#c0c0c0" stroke="#c0c0c0" stroke-width="2" points="1119.2148,-24.7763 1128.8519,-20.3744 1118.5732,-17.8058 1119.2148,-24.7763"/>
</g>
<!-- 43&#45;&gt;42 -->
<g id="edge80" class="edge">
<title>43&#45;&gt;42</title>
<path fill="none" stroke="#c0c0c0" stroke-width="2" d="M648.028,-143.8314C649.7392,-136.131 651.774,-126.9743 653.6757,-118.4166"/>
<polygon fill="#c0c0c0" stroke="#c0c0c0" stroke-width="2" points="657.1459,-118.9344 655.8986,-108.4133 650.3126,-117.4159 657.1459,-118.9344"/>
</g>
<!-- 44 -->
<g id="node45" class="node">
<title>44</title>
<path fill="none" stroke="#569ad8" stroke-width="2" d="M793.4905,-108C793.4905,-108 754.4905,-108 754.4905,-108 748.4905,-108 742.4905,-102 742.4905,-96 742.4905,-96 742.4905,-84 742.4905,-84 742.4905,-78 748.4905,-72 754.4905,-72 754.4905,-72 793.4905,-72 793.4905,-72 799.4905,-72 805.4905,-78 805.4905,-84 805.4905,-84 805.4905,-96 805.4905,-96 805.4905,-102 799.4905,-108 793.4905,-108"/>
<text text-anchor="middle" x="773.9905" y="-87.5" font-family="sans" font-size="10.00" fill="#000000">run_coloc</text>
</g>
<!-- 44&#45;&gt;0 -->
<g id="edge15" class="edge">
<title>44&#45;&gt;0</title>
<path fill="none" stroke="#c0c0c0" stroke-width="2" d="M805.5021,-81.7276C818.3275,-78.4921 833.3228,-74.8758 846.9905,-72 944.3191,-51.5214 1060.0439,-32.7786 1118.3812,-23.7176"/>
<polygon fill="#c0c0c0" stroke="#c0c0c0" stroke-width="2" points="1119.2407,-27.1264 1128.5888,-22.1401 1118.1715,-20.2085 1119.2407,-27.1264"/>
</g>
<!-- 45&#45;&gt;44 -->
<g id="edge82" class="edge">
<title>45&#45;&gt;44</title>
<path fill="none" stroke="#c0c0c0" stroke-width="2" d="M762.028,-143.8314C763.7392,-136.131 765.774,-126.9743 767.6757,-118.4166"/>
<polygon fill="#c0c0c0" stroke="#c0c0c0" stroke-width="2" points="771.1459,-118.9344 769.8986,-108.4133 764.3126,-117.4159 771.1459,-118.9344"/>
</g>
<!-- 46 -->
<g id="node47" class="node">
<title>46</title>
<path fill="none" stroke="#569ad8" stroke-width="2" d="M907.4905,-108C907.4905,-108 868.4905,-108 868.4905,-108 862.4905,-108 856.4905,-102 856.4905,-96 856.4905,-96 856.4905,-84 856.4905,-84 856.4905,-78 862.4905,-72 868.4905,-72 868.4905,-72 907.4905,-72 907.4905,-72 913.4905,-72 919.4905,-78 919.4905,-84 919.4905,-84 919.4905,-96 919.4905,-96 919.4905,-102 913.4905,-108 907.4905,-108"/>
<text text-anchor="middle" x="887.9905" y="-87.5" font-family="sans" font-size="10.00" fill="#000000">run_coloc</text>
</g>
<!-- 46&#45;&gt;0 -->
<g id="edge16" class="edge">
<title>46&#45;&gt;0</title>
<path fill="none" stroke="#c0c0c0" stroke-width="2" d="M919.5216,-81.529C969.3073,-68.1537 1065.9023,-42.2028 1118.9283,-27.957"/>
<polygon fill="#c0c0c0" stroke="#c0c0c0" stroke-width="2" points="1119.8642,-31.3298 1128.6136,-25.355 1118.0479,-24.5695 1119.8642,-31.3298"/>
</g>
<!-- 47&#45;&gt;46 -->
<g id="edge84" class="edge">
<title>47&#45;&gt;46</title>
<path fill="none" stroke="#c0c0c0" stroke-width="2" d="M876.028,-143.8314C877.7392,-136.131 879.774,-126.9743 881.6757,-118.4166"/>
<polygon fill="#c0c0c0" stroke="#c0c0c0" stroke-width="2" points="885.1459,-118.9344 883.8986,-108.4133 878.3126,-117.4159 885.1459,-118.9344"/>
</g>
<!-- 48 -->
<g id="node49" class="node">
<title>48</title>
<path fill="none" stroke="#569ad8" stroke-width="2" d="M1021.4905,-108C1021.4905,-108 982.4905,-108 982.4905,-108 976.4905,-108 970.4905,-102 970.4905,-96 970.4905,-96 970.4905,-84 970.4905,-84 970.4905,-78 976.4905,-72 982.4905,-72 982.4905,-72 1021.4905,-72 1021.4905,-72 1027.4905,-72 1033.4905,-78 1033.4905,-84 1033.4905,-84 1033.4905,-96 1033.4905,-96 1033.4905,-102 1027.4905,-108 1021.4905,-108"/>
<text text-anchor="middle" x="1001.9905" y="-87.5" font-family="sans" font-size="10.00" fill="#000000">run_coloc</text>
</g>
<!-- 48&#45;&gt;0 -->
<g id="edge17" class="edge">
<title>48&#45;&gt;0</title>
<path fill="none" stroke="#c0c0c0" stroke-width="2" d="M1033.5263,-75.256C1058.5272,-63.5672 1093.4906,-47.2207 1119.662,-34.9847"/>
<polygon fill="#c0c0c0" stroke="#c0c0c0" stroke-width="2" points="1121.2951,-38.0849 1128.8716,-30.679 1118.3304,-31.7437 1121.2951,-38.0849"/>
</g>
<!-- 49&#45;&gt;48 -->
<g id="edge86" class="edge">
<title>49&#45;&gt;48</title>
<path fill="none" stroke="#c0c0c0" stroke-width="2" d="M990.028,-143.8314C991.7392,-136.131 993.774,-126.9743 995.6757,-118.4166"/>
<polygon fill="#c0c0c0" stroke="#c0c0c0" stroke-width="2" points="999.1459,-118.9344 997.8986,-108.4133 992.3126,-117.4159 999.1459,-118.9344"/>
</g>
<!-- 50 -->
<g id="node51" class="node">
<title>50</title>
<path fill="none" stroke="#569ad8" stroke-width="2" d="M1127.4905,-108C1127.4905,-108 1088.4905,-108 1088.4905,-108 1082.4905,-108 1076.4905,-102 1076.4905,-96 1076.4905,-96 1076.4905,-84 1076.4905,-84 1076.4905,-78 1082.4905,-72 1088.4905,-72 1088.4905,-72 1127.4905,-72 1127.4905,-72 1133.4905,-72 1139.4905,-78 1139.4905,-84 1139.4905,-84 1139.4905,-96 1139.4905,-96 1139.4905,-102 1133.4905,-108 1127.4905,-108"/>
<text text-anchor="middle" x="1107.9905" y="-87.5" font-family="sans" font-size="10.00" fill="#000000">run_coloc</text>
</g>
<!-- 50&#45;&gt;0 -->
<g id="edge18" class="edge">
<title>50&#45;&gt;0</title>
<path fill="none" stroke="#c0c0c0" stroke-width="2" d="M1120.1029,-71.8314C1125.5186,-63.7079 1132.0147,-53.9637 1137.9826,-45.0118"/>
<polygon fill="#c0c0c0" stroke="#c0c0c0" stroke-width="2" points="1141.0801,-46.6753 1143.715,-36.4133 1135.2557,-42.7923 1141.0801,-46.6753"/>
</g>
<!-- 51&#45;&gt;50 -->
<g id="edge88" class="edge">
<title>51&#45;&gt;50</title>
<path fill="none" stroke="#c0c0c0" stroke-width="2" d="M1102.0092,-143.8314C1102.8648,-136.131 1103.8822,-126.9743 1104.8331,-118.4166"/>
<polygon fill="#c0c0c0" stroke="#c0c0c0" stroke-width="2" points="1108.3188,-118.7386 1105.9446,-108.4133 1101.3616,-117.9656 1108.3188,-118.7386"/>
</g>
<!-- 52 -->
<g id="node53" class="node">
<title>52</title>
<path fill="none" stroke="#569ad8" stroke-width="2" d="M1224.4905,-108C1224.4905,-108 1185.4905,-108 1185.4905,-108 1179.4905,-108 1173.4905,-102 1173.4905,-96 1173.4905,-96 1173.4905,-84 1173.4905,-84 1173.4905,-78 1179.4905,-72 1185.4905,-72 1185.4905,-72 1224.4905,-72 1224.4905,-72 1230.4905,-72 1236.4905,-78 1236.4905,-84 1236.4905,-84 1236.4905,-96 1236.4905,-96 1236.4905,-102 1230.4905,-108 1224.4905,-108"/>
<text text-anchor="middle" x="1204.9905" y="-87.5" font-family="sans" font-size="10.00" fill="#000000">run_coloc</text>
</g>
<!-- 52&#45;&gt;0 -->
<g id="edge19" class="edge">
<title>52&#45;&gt;0</title>
<path fill="none" stroke="#c0c0c0" stroke-width="2" d="M1192.6257,-71.8314C1187.0396,-63.6232 1180.3275,-53.7606 1174.1833,-44.7323"/>
<polygon fill="#c0c0c0" stroke="#c0c0c0" stroke-width="2" points="1177.0415,-42.7112 1168.5217,-36.4133 1171.2545,-46.6496 1177.0415,-42.7112"/>
</g>
<!-- 53&#45;&gt;52 -->
<g id="edge90" class="edge">
<title>53&#45;&gt;52</title>
<path fill="none" stroke="#c0c0c0" stroke-width="2" d="M1211.7194,-143.8314C1210.7569,-136.131 1209.6123,-126.9743 1208.5426,-118.4166"/>
<polygon fill="#c0c0c0" stroke="#c0c0c0" stroke-width="2" points="1212.0055,-117.9019 1207.2921,-108.4133 1205.0596,-118.7702 1212.0055,-117.9019"/>
</g>
<!-- 54 -->
<g id="node55" class="node">
<title>54</title>
<path fill="none" stroke="#569ad8" stroke-width="2" d="M1330.4905,-108C1330.4905,-108 1291.4905,-108 1291.4905,-108 1285.4905,-108 1279.4905,-102 1279.4905,-96 1279.4905,-96 1279.4905,-84 1279.4905,-84 1279.4905,-78 1285.4905,-72 1291.4905,-72 1291.4905,-72 1330.4905,-72 1330.4905,-72 1336.4905,-72 1342.4905,-78 1342.4905,-84 1342.4905,-84 1342.4905,-96 1342.4905,-96 1342.4905,-102 1336.4905,-108 1330.4905,-108"/>
<text text-anchor="middle" x="1310.9905" y="-87.5" font-family="sans" font-size="10.00" fill="#000000">run_coloc</text>
</g>
<!-- 54&#45;&gt;0 -->
<g id="edge20" class="edge">
<title>54&#45;&gt;0</title>
<path fill="none" stroke="#c0c0c0" stroke-width="2" d="M1279.2499,-75.256C1254.0077,-63.5306 1218.6754,-47.1182 1192.3074,-34.8698"/>
<polygon fill="#c0c0c0" stroke="#c0c0c0" stroke-width="2" points="1193.5775,-31.6007 1183.0337,-30.562 1190.6285,-37.9492 1193.5775,-31.6007"/>
</g>
<!-- 55&#45;&gt;54 -->
<g id="edge92" class="edge">
<title>55&#45;&gt;54</title>
<path fill="none" stroke="#c0c0c0" stroke-width="2" d="M1323.7007,-143.8314C1321.8825,-136.131 1319.7205,-126.9743 1317.7,-118.4166"/>
<polygon fill="#c0c0c0" stroke="#c0c0c0" stroke-width="2" points="1321.0424,-117.3414 1315.3381,-108.4133 1314.2297,-118.95 1321.0424,-117.3414"/>
</g>
<!-- 56 -->
<g id="node57" class="node">
<title>56</title>
<path fill="none" stroke="#569ad8" stroke-width="2" d="M1440.4905,-108C1440.4905,-108 1401.4905,-108 1401.4905,-108 1395.4905,-108 1389.4905,-102 1389.4905,-96 1389.4905,-96 1389.4905,-84 1389.4905,-84 1389.4905,-78 1395.4905,-72 1401.4905,-72 1401.4905,-72 1440.4905,-72 1440.4905,-72 1446.4905,-72 1452.4905,-78 1452.4905,-84 1452.4905,-84 1452.4905,-96 1452.4905,-96 1452.4905,-102 1446.4905,-108 1440.4905,-108"/>
<text text-anchor="middle" x="1420.9905" y="-87.5" font-family="sans" font-size="10.00" fill="#000000">run_coloc</text>
</g>
<!-- 56&#45;&gt;0 -->
<g id="edge21" class="edge">
<title>56&#45;&gt;0</title>
<path fill="none" stroke="#c0c0c0" stroke-width="2" d="M1389.2885,-81.3866C1340.0886,-68.0191 1245.5751,-42.34 1193.2092,-28.1123"/>
<polygon fill="#c0c0c0" stroke="#c0c0c0" stroke-width="2" points="1193.8918,-24.6709 1183.324,-25.4265 1192.0564,-31.426 1193.8918,-24.6709"/>
</g>
<!-- 57&#45;&gt;56 -->
<g id="edge94" class="edge">
<title>57&#45;&gt;56</title>
<path fill="none" stroke="#c0c0c0" stroke-width="2" d="M1436.6913,-143.8314C1434.4207,-136.0463 1431.7159,-126.7729 1429.1964,-118.1347"/>
<polygon fill="#c0c0c0" stroke="#c0c0c0" stroke-width="2" points="1432.5211,-117.0332 1426.361,-108.4133 1425.8011,-118.9933 1432.5211,-117.0332"/>
</g>
<!-- 58 -->
<g id="node59" class="node">
<title>58</title>
<path fill="none" stroke="#569ad8" stroke-width="2" d="M1552.4905,-108C1552.4905,-108 1513.4905,-108 1513.4905,-108 1507.4905,-108 1501.4905,-102 1501.4905,-96 1501.4905,-96 1501.4905,-84 1501.4905,-84 1501.4905,-78 1507.4905,-72 1513.4905,-72 1513.4905,-72 1552.4905,-72 1552.4905,-72 1558.4905,-72 1564.4905,-78 1564.4905,-84 1564.4905,-84 1564.4905,-96 1564.4905,-96 1564.4905,-102 1558.4905,-108 1552.4905,-108"/>
<text text-anchor="middle" x="1532.9905" y="-87.5" font-family="sans" font-size="10.00" fill="#000000">run_coloc</text>
</g>
<!-- 58&#45;&gt;0 -->
<g id="edge22" class="edge">
<title>58&#45;&gt;0</title>
<path fill="none" stroke="#c0c0c0" stroke-width="2" d="M1501.2985,-81.4344C1489.0631,-78.2672 1474.9208,-74.776 1461.9905,-72 1365.6626,-51.3192 1251.0375,-32.6627 1193.2484,-23.6677"/>
<polygon fill="#c0c0c0" stroke="#c0c0c0" stroke-width="2" points="1193.5543,-20.1735 1183.1366,-22.1023 1192.4834,-27.0911 1193.5543,-20.1735"/>
</g>
<!-- 59&#45;&gt;58 -->
<g id="edge96" class="edge">
<title>59&#45;&gt;58</title>
<path fill="none" stroke="#c0c0c0" stroke-width="2" d="M1550.1866,-143.8314C1547.6997,-136.0463 1544.7374,-126.7729 1541.978,-118.1347"/>
<polygon fill="#c0c0c0" stroke="#c0c0c0" stroke-width="2" points="1545.2495,-116.874 1538.8725,-108.4133 1538.5815,-119.0041 1545.2495,-116.874"/>
</g>
<!-- 60 -->
<g id="node61" class="node">
<title>60</title>
<path fill="none" stroke="#569ad8" stroke-width="2" d="M1665.4905,-108C1665.4905,-108 1626.4905,-108 1626.4905,-108 1620.4905,-108 1614.4905,-102 1614.4905,-96 1614.4905,-96 1614.4905,-84 1614.4905,-84 1614.4905,-78 1620.4905,-72 1626.4905,-72 1626.4905,-72 1665.4905,-72 1665.4905,-72 1671.4905,-72 1677.4905,-78 1677.4905,-84 1677.4905,-84 1677.4905,-96 1677.4905,-96 1677.4905,-102 1671.4905,-108 1665.4905,-108"/>
<text text-anchor="middle" x="1645.9905" y="-87.5" font-family="sans" font-size="10.00" fill="#000000">run_coloc</text>
</g>
<!-- 60&#45;&gt;0 -->
<g id="edge23" class="edge">
<title>60&#45;&gt;0</title>
<path fill="none" stroke="#c0c0c0" stroke-width="2" d="M1614.2671,-81.2218C1601.7854,-77.991 1587.2842,-74.5116 1573.9905,-72 1434.5315,-45.6523 1266.4452,-28.2312 1193.1673,-21.3349"/>
<polygon fill="#c0c0c0" stroke="#c0c0c0" stroke-width="2" points="1193.3398,-17.8359 1183.0585,-20.3939 1192.691,-24.8058 1193.3398,-17.8359"/>
</g>
<!-- 61&#45;&gt;60 -->
<g id="edge98" class="edge">
<title>61&#45;&gt;60</title>
<path fill="none" stroke="#c0c0c0" stroke-width="2" d="M1663.9343,-143.8314C1661.3393,-136.0463 1658.2481,-126.7729 1655.3687,-118.1347"/>
<polygon fill="#c0c0c0" stroke="#c0c0c0" stroke-width="2" points="1658.611,-116.7933 1652.1282,-108.4133 1651.9702,-119.0069 1658.611,-116.7933"/>
</g>
<!-- 62 -->
<g id="node63" class="node">
<title>62</title>
<path fill="none" stroke="#569ad8" stroke-width="2" d="M1778.4905,-108C1778.4905,-108 1739.4905,-108 1739.4905,-108 1733.4905,-108 1727.4905,-102 1727.4905,-96 1727.4905,-96 1727.4905,-84 1727.4905,-84 1727.4905,-78 1733.4905,-72 1739.4905,-72 1739.4905,-72 1778.4905,-72 1778.4905,-72 1784.4905,-72 1790.4905,-78 1790.4905,-84 1790.4905,-84 1790.4905,-96 1790.4905,-96 1790.4905,-102 1784.4905,-108 1778.4905,-108"/>
<text text-anchor="middle" x="1758.9905" y="-87.5" font-family="sans" font-size="10.00" fill="#000000">run_coloc</text>
</g>
<!-- 62&#45;&gt;0 -->
<g id="edge24" class="edge">
<title>62&#45;&gt;0</title>
<path fill="none" stroke="#c0c0c0" stroke-width="2" d="M1727.3014,-81.0333C1714.8241,-77.778 1700.3171,-74.331 1686.9905,-72 1503.4213,-39.8911 1280.5634,-24.9048 1193.4376,-19.9545"/>
<polygon fill="#c0c0c0" stroke="#c0c0c0" stroke-width="2" points="1193.4362,-16.4491 1183.2568,-19.387 1193.0465,-23.4383 1193.4362,-16.4491"/>
</g>
<!-- 63&#45;&gt;62 -->
<g id="edge100" class="edge">
<title>63&#45;&gt;62</title>
<path fill="none" stroke="#c0c0c0" stroke-width="2" d="M1777.6819,-143.8314C1774.9788,-136.0463 1771.7589,-126.7729 1768.7595,-118.1347"/>
<polygon fill="#c0c0c0" stroke="#c0c0c0" stroke-width="2" points="1771.9705,-116.7119 1765.384,-108.4133 1765.3578,-119.0081 1771.9705,-116.7119"/>
</g>
</g>
</svg>
